<svg width="1048" height="1048" viewBox="0 0 1048 1048" fill="none" xmlns="http://www.w3.org/2000/svg">
<g clip-path="url(#clip0_31_425)">
<path d="M511.954 434.244C509.48 437.951 507.007 441.658 503.583 445.79C498.921 450.805 495.206 455.395 491.492 459.985C491.492 459.985 491.336 459.753 490.9 459.891C489.378 461.761 488.293 463.49 487.208 465.22C487.208 465.22 486.98 465.007 486.734 465.22C486.087 465.942 485.687 466.452 485.287 466.961C485.287 466.961 485.217 466.492 485.094 466.801C484.585 467.628 484.199 468.148 483.814 468.667C483.814 468.667 483.73 468.223 483.592 468.525C483.064 469.345 482.675 469.866 482.286 470.385C482.286 470.385 482.372 470.001 482.06 470.211C480.99 471.543 480.234 472.665 479.477 473.788C479.477 473.788 479.429 473.436 479.178 473.643C478.387 474.617 477.848 475.386 477.309 476.155C477.309 476.155 477.328 476.238 476.89 476.433C475.898 477.372 475.343 478.117 474.788 478.862C474.788 478.862 474.653 478.412 474.523 478.679C474.038 479.476 473.683 480.009 473.328 480.541C473.328 480.541 473.233 480.156 473.05 480.417C472.472 481.173 472.077 481.671 471.683 482.167C471.683 482.167 471.579 481.727 471.439 482.008C470.915 482.801 470.531 483.314 470.145 483.825C470.145 483.825 470.045 483.401 469.893 483.675C469.334 484.441 468.928 484.932 468.521 485.424C468.521 485.424 468.445 484.976 468.312 485.274C467.78 486.073 467.382 486.575 466.983 487.076C466.983 487.076 466.925 486.635 466.786 486.942C466.25 487.747 465.853 488.248 465.456 488.75C465.456 488.75 465.384 488.312 465.247 488.613C464.714 489.417 464.317 489.918 463.921 490.419C463.921 490.419 463.959 489.985 463.771 490.267C463.061 491.317 462.538 492.084 462.016 492.852C462.016 492.852 462.025 492.963 461.58 493.168C460.565 494.101 459.995 494.831 459.424 495.561C459.424 495.561 459.273 495.098 459.142 495.362C458.608 496.138 458.204 496.651 457.8 497.163C457.8 497.163 457.727 496.676 457.606 496.984C457.083 497.81 456.681 498.326 456.278 498.843C456.278 498.843 456.385 498.436 456.09 498.678C455.078 500.066 454.362 501.21 453.644 502.355C453.644 502.355 453.451 502.038 453.221 502.226C452.56 502.88 452.128 503.345 451.696 503.811C451.696 503.811 451.614 503.364 451.493 503.679C450.98 504.51 450.589 505.025 450.199 505.542C450.199 505.542 450.146 505.088 450.016 505.407C449.498 506.249 449.112 506.77 448.727 507.292C448.727 507.292 448.65 506.81 448.519 507.112C447.99 507.932 447.591 508.452 447.193 508.972C447.193 508.972 447.129 508.475 447.015 508.79C446.525 509.642 446.15 510.177 445.775 510.713C445.775 510.713 445.713 510.259 445.564 510.554C445.033 511.369 444.65 511.89 444.267 512.412C444.267 512.412 444.193 511.952 444.053 512.244C443.544 513.063 443.176 513.592 442.808 514.12C442.808 514.12 442.788 513.698 442.628 513.987C442.133 514.797 441.798 515.319 441.462 515.84C441.462 515.84 441.477 515.576 441.176 515.791C440.337 516.767 439.8 517.528 439.263 518.289C439.263 518.289 439.213 518.201 438.821 518.414C437.708 519.67 436.988 520.716 436.268 521.76C436.268 521.76 436.232 521.612 435.992 521.888C435.389 522.606 435.024 523.047 434.66 523.488C434.66 523.488 434.696 523.322 434.298 523.559C429.726 530.671 433.786 534.324 438.401 537.759C438.401 537.759 438.005 537.868 438.104 538.48C441.103 544.407 444.004 549.723 446.905 555.04C446.905 555.04 446.861 555.081 446.916 555.654C448.003 558.075 449.034 559.925 450.067 561.774C450.067 561.774 449.966 561.756 450.01 562.343C453.538 571.224 456.754 579.672 460.617 587.743C462.536 591.755 465.644 595.076 468.214 598.709C468.214 598.709 468.239 598.736 468.241 599.403C472.289 608.016 476.332 615.962 480.377 623.907C480.377 623.907 480.461 623.946 480.431 624.643C484.949 635.778 489.283 646.339 494.144 656.597C496.053 660.628 499.139 663.983 501.688 667.644C501.688 667.644 501.977 667.904 501.947 668.802C506.11 677.823 510.302 685.944 514.494 694.066C514.494 694.066 514.142 694.515 514.247 694.852C515.261 696.596 516.169 698.002 517.079 699.408C517.079 699.408 517.024 699.473 517.063 700.025C518.127 702.44 519.149 704.301 520.172 706.162C520.172 706.162 520.038 706.208 520.108 706.781C522.155 710.909 524.135 714.463 526.114 718.018C526.114 718.018 526.391 718.236 526.397 719.018C527.327 721.419 528.252 723.039 529.176 724.657C529.176 724.657 529.202 724.685 529.21 725.298C530.261 727.703 531.308 729.496 532.354 731.288C532.354 731.288 532.26 731.435 532.315 731.99C534.506 736.56 536.642 740.576 538.777 744.591C538.777 744.591 538.666 744.591 538.645 745.169C540.791 749.738 542.961 753.727 545.13 757.717C545.13 757.717 544.446 758.018 544.697 758.461C545.858 760.32 546.768 761.735 547.676 763.15C547.676 763.15 547.528 763.225 547.587 763.799C550.64 770.158 553.635 775.94 556.63 781.723C556.63 781.723 556.646 781.753 556.655 782.365C557.694 784.785 558.726 786.593 559.757 788.402C559.757 788.402 559.639 788.491 559.687 789.091C560.724 793.284 561.715 796.875 562.977 801.444C559.538 801.636 556.599 801.939 553.66 801.943C527.285 801.98 500.909 801.894 474.535 802.007C466.427 802.042 458.313 802.622 451.225 797.055C451.225 797.055 451.338 797.041 451.285 796.477C449.73 793.492 448.226 791.068 446.723 788.645C446.723 788.645 446.824 788.554 446.747 787.972C444.664 783.885 442.656 780.38 440.65 776.875C440.65 776.875 440.729 776.805 440.683 776.229C439.573 773.846 438.51 772.04 437.446 770.235C437.446 770.235 437.567 770.222 437.549 769.85C436.758 768.519 435.987 767.559 435.214 766.6C401.187 697.945 367.169 629.285 333.098 560.656C331.784 558.01 329.961 555.672 327.581 552.32C325.101 550.999 323.418 550.16 321.732 550.155C293.472 550.072 265.212 550.051 236.953 550.178C234.823 550.187 232.697 551.412 230.568 552.071C224.248 554.789 225.383 561.026 225.347 566.365C225.138 596.832 225.139 627.3 225.052 657.769C224.92 704.171 224.778 750.575 224.624 796.978C224.616 799.182 224.447 801.384 224.301 804.822C210.059 804.822 196.031 804.822 182.003 804.822C181.577 805.702 181.151 806.581 180.725 807.462C203.792 833.757 226.73 860.188 251.728 885.814C254.18 887 256.143 887.598 258.107 887.598C429.829 887.634 601.55 887.634 773.272 887.53C776.173 887.527 779.072 886.211 781.973 885.507C782.065 884.878 782.158 884.247 782.679 883.031C783.525 882.142 783.763 881.718 783.822 881.171C786.013 879.413 788.492 877.963 790.351 875.849C810.285 853.191 830.121 830.429 850.712 807.069C851.677 805.571 851.913 804.7 851.626 803.453C847.605 802.701 844.107 802 840.61 801.995C768.82 801.884 697.032 801.85 625.216 801.032C625.175 598.151 625.169 396.04 625.087 193.929C625.086 188.977 624.24 184.027 623.744 178.468C623.698 176.646 623.694 175.433 624.403 174.186C724.541 174.1 823.969 174.092 923.396 173.889C929.895 173.876 931.664 176.805 931.581 183.432C931.336 202.988 931.436 222.552 931.553 242.11C931.575 245.678 932.311 249.241 932.719 252.807C929.505 257.618 926.681 262.834 922.993 267.155C916.317 274.975 909.127 282.26 901.09 289.475C897.285 288.839 894.54 288.199 891.794 288.195C842.607 288.131 793.42 288.14 744.233 288.158C742.23 288.159 740.228 288.412 738.225 288.547C740.565 289.839 742.808 289.841 745.05 289.839C791.448 289.827 837.847 289.796 884.245 289.841C887.247 289.843 890.25 290.423 893.252 290.733C887.935 290.953 882.619 291.353 877.302 291.36C832.106 291.422 786.91 291.578 741.716 291.259C734.295 291.207 731.554 293.063 731.66 301.893C732.122 340.207 731.815 378.531 732.04 416.85C732.072 422.276 730.931 429.363 739.287 430.511C739.593 431.435 739.552 432.209 739.677 432.243C740.403 432.439 741.169 432.536 741.921 432.536C788.754 432.551 835.586 432.584 882.418 432.454C884.444 432.448 886.467 430.931 888.491 430.12C891.611 428.606 893.231 429.35 893.241 433.482C893.314 461.735 893.484 489.987 893.546 518.241C893.55 519.85 893.364 522.048 892.44 522.977C885.106 530.363 877.571 537.509 868.971 544.394C864.57 543.825 861.295 543.39 858.021 543.386C817.477 543.347 776.933 543.369 735.973 543.572C734.845 544.788 734.133 545.809 733.422 546.829C733.32 547.321 733.126 547.762 732.135 548.747C730.755 561.053 729.837 572.758 729.489 584.483C729.275 591.696 730.248 598.944 730.143 606.167C729.869 625.112 728.926 644.055 729.032 662.993C729.072 670.096 731.274 677.184 732.49 684.28C732.49 684.28 732.074 684.221 732.254 684.637C733.457 690.906 737.391 691.188 741.706 691.17C759.539 691.093 777.371 691.227 795.201 691.048C798.139 691.02 801.052 689.718 804.006 689.207C805.926 688.875 807.931 688.595 809.842 688.839C814.54 689.439 819.201 690.991 823.886 691.035C847.954 691.268 872.025 691.061 896.094 691.218C900.864 691.248 905.631 692.195 910.398 692.719C910.894 692.79 911.29 693.046 911.952 694.204C912.702 695.337 913.086 695.755 913.469 696.174C913.469 696.174 913.245 696.177 913.52 696.39C914.2 697.014 914.602 697.426 915.005 697.837C915.005 697.837 914.77 697.894 915.093 698.021C915.872 698.5 916.329 698.852 916.786 699.203C916.786 699.203 916.761 698.674 916.972 698.831C917.182 698.99 917.386 699.393 917.386 699.393H917.831C922.702 704.142 927.572 708.891 932.306 714.798C931.937 719.257 931.517 722.555 931.505 725.856C931.416 752.199 931.404 778.542 931.368 804.885C917.924 804.972 904.479 804.924 891.04 805.268C888.526 805.332 885.296 806.149 883.658 807.986C857.54 837.275 831.623 866.783 805.682 896.263C804.466 897.644 803.451 899.241 801.539 901.822C805.637 906.301 809.109 911.922 813.93 914.726C817.192 916.623 822.999 915.97 826.545 914.004C837.474 907.945 848.575 904.237 860.861 906.095C863.078 906.431 865.408 906.802 867.401 907.828C882.774 915.741 894.801 940.23 892.487 958.592C890.182 976.874 874.64 994.556 857.128 997.551C835.088 1001.32 809.648 980.979 809.151 951.759C809.045 945.571 807.542 941.265 803.639 937.096C796.564 929.538 789.879 921.537 782.397 913.01C781.389 911.857 781.015 911.415 780.636 910.422C780.624 909.144 780.618 908.412 780.381 907.298C778.424 906.649 776.698 906.149 774.973 906.149C599.79 906.112 424.608 906.099 249.427 906.238C246.744 906.239 244.064 908.147 240.975 909.514C240.057 910.369 239.546 910.874 239.034 911.379C204.344 873.887 169.358 836.716 135.189 798.656C127.409 789.99 122.455 778.246 116.504 766.684C116.138 758.608 115.468 751.768 114.798 744.928C114.724 740.904 114.65 736.88 114.856 731.808C115.026 729.885 114.914 729.011 114.803 728.138C114.726 726.853 114.649 725.566 115.142 723.339C115.81 712.301 115.921 702.204 115.958 692.106C115.959 691.801 115.187 691.492 114.775 691.186C114.7 687.72 114.624 684.255 114.937 679.491C115.138 673.57 114.952 668.947 114.765 664.325C114.694 662.509 114.623 660.692 115.068 657.95C115.307 652.185 115.031 647.347 114.755 642.508C114.685 634.042 114.616 625.575 115.038 616.15C115.274 613.655 115.017 612.118 114.76 610.581C114.688 608.229 114.615 605.876 115.085 602.568C117.585 588.319 119.173 575.033 114.792 561.901C114.716 560.607 114.64 559.314 114.951 556.785C116.021 549.089 116.955 542.644 117.237 536.163C117.324 534.145 115.645 532.034 114.775 529.965C114.702 527.06 114.629 524.154 114.844 520.227C115.012 518.326 114.892 517.448 114.771 516.57C114.698 512.544 114.624 508.52 114.932 503.199C115.13 497.838 114.945 493.773 114.759 489.709C114.691 485.682 114.622 481.657 114.912 476.455C115.107 473.373 114.945 471.468 114.782 469.563C114.708 468.782 114.634 468.003 114.939 466.088C115.137 459.762 114.957 454.569 114.776 449.378C114.702 444.806 114.628 440.235 114.941 434.321C115.142 427.26 114.956 421.541 114.771 415.824C114.696 414.53 114.622 413.238 114.724 411.113C115.006 409.882 114.962 409.49 114.768 409.108C114.694 405.083 114.619 401.056 114.937 395.677C116.05 369.749 116.832 345.175 117.367 320.593C117.407 318.775 115.681 316.909 114.775 315.065C114.701 311.056 114.627 307.047 115.123 301.989C118.207 296.441 119.025 292.093 114.77 288.189C114.699 284.172 114.628 280.156 114.952 274.847C115.922 265.366 116.879 257.18 116.926 248.988C116.953 244.153 115.539 239.308 114.773 234.468C114.699 232.108 114.624 229.747 115.139 226.356C116.275 219.826 116.821 214.329 117.367 208.829C117.367 208.829 117.372 209.008 117.671 208.944C118.423 207.902 118.875 206.925 119.328 205.948C126.671 197.483 133.99 188.99 141.366 180.557C148.633 172.249 148.604 172.33 141.715 164.105C135.008 156.096 128.122 148.235 121.859 139.816C112.005 126.569 111.224 97.4644 120.613 83.8123C126.561 75.1646 133.126 66.8697 140.28 59.4266C154.848 44.27 184.812 45.9115 199.505 62.5676C206.014 69.9461 211.536 78.3803 218.233 87.2313C222.103 88.7615 225.246 89.9437 228.391 89.9488C293.899 90.056 359.408 90.0512 424.916 89.9669C428.142 89.9628 431.366 89.0368 434.592 88.5401C437.605 90.342 441.213 91.4866 443.545 94.0438C484.828 139.326 525.958 184.777 567.104 230.213C567.989 231.193 568.664 232.404 569.4 234.636C569.165 237.982 568.798 240.198 568.798 242.414C568.801 316.779 568.839 391.145 568.872 465.511C549.939 486.893 531.113 508.397 511.922 529.494C509.731 531.901 505.166 533.577 502.257 532.859C497.936 531.793 492.746 529.248 490.558 525.477C489.14 523.036 491.304 516.169 493.766 513.204C508.842 495.05 524.53 477.518 539.821 459.578C542.126 456.874 543.413 453.117 545.613 449.586C546.441 449.243 547.119 449.246 547.159 449.073C547.339 448.271 547.399 447.422 547.399 446.591C547.401 383.463 547.42 320.336 547.284 257.208C547.279 254.71 545.789 252.215 544.992 249.719C525.056 227.018 505.196 204.233 485.16 181.641C467.253 161.449 449.258 141.349 431.004 121.543C428.637 118.973 424.488 117.108 421.155 117.092C356.89 116.793 292.624 116.84 228.357 116.733C223.89 116.725 220.04 117.202 219.593 123.281C218.567 137.212 210.214 145.666 201.141 153.652C195.591 158.537 190.029 163.419 184.71 168.598C183.175 170.094 182.462 172.615 181.372 174.665C183.492 175.784 185.573 177.751 187.741 177.874C197.373 178.423 207.03 178.601 216.678 178.628C280.688 178.804 344.698 178.939 408.709 178.998C418.055 179.007 425.416 182.364 432.115 190.133C458.344 220.546 485.118 250.385 511.582 281.601C511.281 284.14 510.921 285.516 510.92 286.892C510.867 333.835 510.835 380.777 510.876 427.719C510.877 429.894 511.578 432.069 511.954 434.244ZM187.684 768.526C187.684 768.526 187.451 768.444 188.06 767.633C188.435 767.061 188.81 766.489 189.11 765.492C189.11 765.492 189.205 765.073 189.848 763.866C190.156 760.845 190.732 757.825 190.735 754.802C190.787 678.929 190.793 603.055 190.732 527.182C190.73 524.182 189.988 521.184 189.731 517.297C190.608 516.664 191.485 516.031 193.519 515.892C194.769 516.099 196.019 516.486 197.269 516.486C244.713 516.521 292.158 516.539 339.603 516.467C341.825 516.464 344.048 515.632 347.286 515.319C350.045 519.206 353.377 522.751 355.475 527.032C392.551 602.73 429.837 678.31 466.105 754.479C472.559 768.034 479.66 774.376 493.381 771.958C499.655 770.853 506.153 771.286 513.983 770.962C511.709 765.623 510.462 762.313 508.935 759.169C472.468 684.053 435.99 608.941 399.457 533.863C393.506 521.634 393.523 519.733 401.482 509.32C403.115 507.185 404.9 505.184 406.68 503.193C430.198 476.895 453.852 450.741 477.096 424.152C479.874 420.976 481.784 415.472 481.826 411.019C482.174 374.924 482.161 338.821 481.724 302.727C481.667 298.029 479.662 292.195 476.712 288.889C453.77 263.178 430.373 237.956 406.561 211.473C404.215 210.765 401.87 209.44 399.523 209.437C321.66 209.327 243.797 209.303 165.935 209.503C163.055 209.51 160.18 211.893 156.89 213.258C156.89 213.258 156.806 212.804 155.943 213.386C155.434 213.869 154.926 214.353 154.234 215.479C154.032 215.9 153.726 216.183 152.329 216.842C151.463 219.837 150.596 222.831 149.077 227.048C148.741 230.076 148.112 233.102 148.111 236.13C148.059 409.347 148.047 582.564 148.159 755.78C148.161 758.831 149.71 761.88 150.969 766.163C152.726 767.957 154.479 771.284 156.242 771.289C165.931 771.323 175.624 770.545 186.124 769.437C186.669 769.048 187.215 768.66 187.684 768.526ZM696.513 466.276C696.513 466.276 696.666 466.288 696.734 464.7C696.712 395.268 696.691 325.836 698.114 256.371C701.412 256.329 704.71 256.253 708.007 256.253C765.09 256.249 822.172 256.341 879.255 256.076C883.397 256.056 887.529 253.45 892.473 251.187C893.297 242.534 894.549 233.9 894.835 225.225C895.183 214.652 892.868 212.156 883.443 212.151C812.727 212.107 742.011 212.073 671.296 212.438C667.308 212.459 663.336 216.029 658.522 218.954C658.069 221.926 657.218 224.896 657.217 227.867C657.153 401.434 657.147 575 657.244 748.565C657.246 751.716 658.545 754.865 659.674 758.858C660.436 760.188 661.199 761.518 662.784 763.739C667.164 764.743 671.544 766.61 675.928 766.622C743.235 766.799 810.541 766.766 877.849 766.63C880.981 766.623 884.109 765.205 888.148 763.875C893.484 762.805 895.883 758.902 895.973 753.309C896.089 746.107 896.213 738.857 895.571 731.713C895.311 728.816 893.04 726.138 890.657 722.641C887.661 722.283 884.665 721.621 881.669 721.615C824.019 721.491 766.37 721.443 708.722 721.378C696.857 721.365 696.846 721.359 696.838 708.51C696.793 642.203 696.755 575.897 696.707 509.711C696.707 509.711 696.598 509.702 698.055 509.769C746.215 509.78 794.374 509.829 842.534 509.718C845.685 509.71 848.834 508.465 852.85 507.028C859.823 502.031 861.007 474.478 854.475 469.017C854.076 468.684 853.594 468.471 853.075 467.323C852.184 466.941 851.294 466.225 850.404 466.225C799.102 466.261 747.802 466.357 696.513 466.276ZM172.409 139.559C174.596 138.874 176.899 138.474 178.949 137.456C189.022 132.451 195.123 123.87 195.595 111.667C196.077 99.1832 190.477 89.7275 180.906 83.382C172.02 77.4903 162.951 78.216 154.383 84.3066C144.178 91.5617 139.432 105.354 142.747 117.017C146.866 131.51 156.886 139.523 172.409 139.559ZM829.796 953.579C829.888 967.634 842.753 977.959 854.058 976.297C866.901 974.408 875.36 962.708 874.076 948.747C872.859 935.514 862.015 925.373 850.04 926.267C839.217 927.073 831.392 937.102 829.796 953.579ZM866.725 209.217C801.107 209.217 735.488 209.217 669.869 209.217C669.872 209.612 669.874 210.007 669.875 210.403C741.775 210.403 813.674 210.403 885.573 210.403C885.579 210.008 885.585 209.612 885.592 209.217C879.807 209.217 874.021 209.217 866.725 209.217Z" fill="#199AE7"/>
<path d="M239.562 912.295C240.03 911.729 240.541 911.175 242.044 910.1C248.588 909.133 254.141 908.301 259.695 908.299C433.64 908.226 607.585 908.234 781.53 908.229C781.536 909.031 781.544 909.832 780.839 911.267C777.588 911.918 775.048 911.948 772.509 911.948C597.013 911.969 421.518 911.988 245.782 912.205C245.224 912.678 244.93 912.983 244.654 913.318C243.921 913.373 243.187 913.427 241.648 913.091C240.456 912.488 240.056 912.324 239.642 912.205C239.642 912.205 239.607 912.307 239.562 912.295Z" fill="#199AE7"/>
<path d="M933.795 251.624C933.183 248.809 932.443 245.244 932.422 241.673C932.305 222.1 932.205 202.524 932.45 182.954C932.533 176.321 930.758 173.39 924.243 173.403C824.56 173.606 724.874 173.614 624.458 173.227C623.818 172.169 623.911 171.552 624.003 170.935C701.129 170.902 778.254 170.865 855.38 170.836C881.315 170.826 907.25 170.834 934 170.834C934 197.938 934 224.405 933.795 251.624Z" fill="#199AE7"/>
<path d="M910.937 692.78C906.353 692.812 901.583 691.891 896.808 691.861C872.716 691.709 848.623 691.91 824.531 691.684C819.843 691.639 815.178 690.133 810.475 689.549C808.563 689.313 806.555 689.584 804.633 689.907C801.678 690.404 798.761 691.669 795.821 691.697C777.974 691.869 760.124 691.739 742.276 691.815C737.957 691.833 734.02 691.557 732.844 685.244C737.501 684.857 742.311 685.304 747.119 685.307C797.954 685.334 848.789 685.145 899.621 685.567C903.346 685.598 907.041 689.915 910.937 692.78Z" fill="#199AE7"/>
<path d="M623.63 172.113C624.022 172.493 623.949 173.109 623.891 174.199C623.908 175.885 623.911 177.099 623.905 179.699C623.873 310.764 623.827 440.441 623.83 570.118C623.832 647.532 623.912 724.946 623.873 802.86C623.725 803.691 623.661 804.022 623.597 804.352C623.28 801.396 622.69 798.44 622.69 795.483C622.646 589.957 622.65 384.43 622.673 178.904C622.674 176.719 622.993 174.535 623.63 172.113Z" fill="#199AE7"/>
<path d="M245.969 910.924C421.441 910.906 596.912 910.888 772.384 910.869C774.924 910.869 777.463 910.84 780.718 910.794C781.808 911.217 782.183 911.673 782.813 912.493C778.932 913.05 774.794 913.24 769.467 913.173C765.741 912.817 763.207 912.628 760.673 912.629C620.527 912.629 480.381 912.615 340.235 912.685C311.305 912.699 282.375 913.027 253.445 913.212C251.122 913.385 248.8 913.559 246.242 912.77C245.994 911.514 245.982 911.219 245.969 910.924Z" fill="#199AE7"/>
<path d="M781.531 886.428C779.327 886.823 776.428 887.653 773.529 887.654C601.836 887.719 430.143 887.719 258.452 887.696C256.489 887.696 254.526 887.319 252.375 886.859C422.311 886.592 592.434 886.588 762.557 886.578C768.65 886.578 774.743 886.511 781.531 886.428Z" fill="#199AE7"/>
<path d="M450.969 797.762C457.946 802.902 466.123 802.304 474.295 802.27C500.876 802.153 527.458 802.241 554.039 802.203C557.002 802.199 559.965 801.889 563.429 801.691C562.158 796.998 561.16 793.308 560.171 788.963C562.888 793.389 565.596 798.47 568.844 804.565C565.874 804.967 564.004 805.437 562.135 805.441C529.407 805.503 496.679 805.392 463.952 805.634C458.249 805.676 454.014 803.87 450.969 797.762Z" fill="#199AE7"/>
<path d="M434.313 88.306C431.772 89.0401 428.548 89.9705 425.323 89.9747C359.824 90.0594 294.326 90.0642 228.828 89.9564C225.683 89.9513 222.54 88.7635 219.062 87.6286C287.582 87.3273 356.438 87.5196 425.293 87.7334C428.072 87.742 430.849 87.954 434.313 88.306Z" fill="#199AE7"/>
<path d="M623.938 804.67C624.012 804.191 624.093 803.77 624.651 802.643C625.129 801.936 625.872 801.788 625.872 801.788C697.709 801.849 769.546 801.89 841.384 802.032C844.884 802.039 848.384 802.929 852 803.891C851.372 804.779 850.63 805.185 849.887 805.59C849.244 805.648 848.6 805.705 846.899 805.377C844.074 804.772 842.306 804.361 840.538 804.361C773.454 804.341 706.371 804.349 639.287 804.424C637.296 804.427 635.306 805.205 633.316 805.621C632.673 805.646 632.031 805.671 630.427 805.286C627.653 804.814 625.84 804.754 624.027 804.692C624.027 804.692 623.945 804.729 623.938 804.67Z" fill="#199AE7"/>
<path d="M634.188 805.392C635.471 804.937 637.451 804.404 639.432 804.402C706.203 804.35 772.973 804.345 839.744 804.359C841.503 804.359 843.263 804.641 845.594 805.024C841.13 805.389 836.095 805.635 831.059 805.635C765.668 805.631 700.277 805.593 634.188 805.392Z" fill="#199AE7"/>
<path d="M569.655 464.508C568.903 390.791 568.848 316.508 568.844 242.225C568.844 240.011 569.364 237.797 569.976 234.953C570.626 240.689 571.206 247.056 571.219 253.423C571.35 320.295 571.405 387.164 571.406 454.036C571.406 457.337 570.725 460.639 569.655 464.508Z" fill="#199AE7"/>
<path d="M732.844 683.804C731.614 677.475 729.056 670.382 729.01 663.273C728.886 644.323 729.981 625.367 730.3 606.41C730.422 599.183 729.292 591.929 729.541 584.712C729.944 572.979 731.012 561.266 732.281 549.148C732.73 593.512 732.696 638.272 732.844 683.804Z" fill="#199AE7"/>
<path d="M545.781 250.342C546.199 252.117 546.997 254.611 547 257.11C547.073 320.243 547.062 383.377 547.061 446.512C547.061 447.344 547.029 448.193 546.932 448.993C546.911 449.166 546.547 449.165 546.236 448.958C546.094 419.418 546.059 390.162 546.16 359.337C546.266 352.695 546.236 347.622 546.205 342.549C546.103 315.936 546.003 289.323 545.895 262.71C545.879 258.828 545.826 254.946 545.781 250.342Z" fill="#199AE7"/>
<path d="M893.975 291.38C890.423 291.001 887.438 290.445 884.451 290.442C838.314 290.4 792.176 290.429 746.037 290.442C743.807 290.443 741.577 290.442 739.25 289.201C741.241 289.071 743.233 288.829 745.224 288.828C794.136 288.81 843.048 288.802 891.96 288.863C894.689 288.866 897.418 289.48 900.687 290.164C898.999 290.829 896.769 291.144 893.975 291.38Z" fill="#199AE7"/>
<path d="M889.156 429.882C887.614 430.775 885.588 432.342 883.558 432.347C836.656 432.482 789.752 432.447 742.849 432.432C742.094 432.43 741.328 432.332 740.6 432.129C740.476 432.095 740.517 431.294 740.752 430.624C741.818 430.329 742.612 430.257 744.553 430.488C790.007 430.727 834.314 430.663 878.62 430.598C878.87 430.229 879.192 430.104 880.581 430.432C882.085 430.613 882.598 430.586 883.109 430.558C883.416 430.234 883.774 430.122 884.792 430.427C885.88 430.654 886.336 430.552 886.771 430.325C887.405 430.159 888.038 429.995 889.156 429.882Z" fill="#199AE7"/>
<path d="M512.133 433.73C511.699 432.309 511.202 430.134 511.2 427.959C511.172 381.027 511.195 334.096 511.231 287.164C511.232 285.788 511.489 284.413 511.793 282.403C512.138 288.147 512.471 294.524 512.469 300.903C512.452 344.928 512.366 388.952 512.133 433.73Z" fill="#199AE7"/>
<path d="M877.625 430.541C833.906 431.095 789.534 431.201 744.375 431.156C759.068 430.622 774.549 429.977 790.029 429.913C819.009 429.795 847.991 430.014 877.625 430.541Z" fill="#199AE7"/>
<path d="M736.688 544.028C777.21 544.023 817.73 544.007 858.253 544.035C861.525 544.037 864.798 544.338 868.656 544.669C843.104 544.984 816.967 545.16 790.828 545.268C773.312 545.34 755.795 545.315 737.519 545.004C736.736 544.459 736.712 544.243 736.688 544.028Z" fill="#199AE7"/>
<path d="M114.005 315.746C114.944 316.815 116.6 318.692 116.562 320.52C116.048 345.233 115.298 369.939 114.343 395.257C114.031 369.421 113.982 342.976 114.005 315.746Z" fill="#199AE7"/>
<path d="M230.594 552.916C232.026 552.043 234.154 550.551 236.286 550.54C264.571 550.386 292.857 550.412 321.142 550.513C322.83 550.518 324.516 551.54 326.687 552.61C295.212 553.082 263.253 553.034 230.594 552.916Z" fill="#199AE7"/>
<path d="M933.116 805.635C932.679 779.339 932.687 752.886 932.751 726.434C932.758 723.119 933.054 719.805 933.4 715.865C933.732 737.82 933.927 760.402 933.999 782.986C934.022 790.482 933.728 797.981 933.116 805.635Z" fill="#199AE7"/>
<path d="M502.219 667.132C499.668 664.074 496.501 660.723 494.539 656.696C489.55 646.447 485.1 635.896 480.438 624.812C487.679 638.283 494.916 652.407 502.219 667.132Z" fill="#199AE7"/>
<path d="M468.906 597.881C466.26 594.834 462.961 591.506 460.923 587.484C456.822 579.393 453.408 570.925 449.688 561.973C456.051 573.317 462.437 585.301 468.906 597.881Z" fill="#199AE7"/>
<path d="M114.005 234.953C114.971 239.108 116.594 244.064 116.562 249.011C116.508 257.393 115.41 265.768 114.426 274.708C114.04 262.097 113.979 248.923 114.005 234.953Z" fill="#199AE7"/>
<path d="M114.014 563.255C120.057 575.382 117.906 588.424 114.669 601.728C114.023 589.327 113.964 576.675 114.014 563.255Z" fill="#199AE7"/>
<path d="M480.438 623.53C476.622 616.036 472.764 607.93 468.906 599.163C472.736 606.641 476.566 614.78 480.438 623.53Z" fill="#199AE7"/>
<path d="M114.003 691.75C114.5 691.261 115.282 691.58 115.281 691.897C115.244 702.345 115.132 712.793 114.57 723.559C114.047 713.437 113.985 702.997 114.003 691.75Z" fill="#199AE7"/>
<path d="M515.031 694.063C510.849 686.566 506.538 678.478 502.219 669.697C506.442 677.159 510.671 685.317 515.031 694.063Z" fill="#199AE7"/>
<path d="M114 745.361C115.055 751.485 115.999 758.376 116.563 765.879C115.418 759.705 114.654 752.915 114 745.361Z" fill="#199AE7"/>
<path d="M114.005 531.194C114.959 532.496 116.647 534.627 116.559 536.665C116.276 543.209 115.337 549.719 114.372 556.843C114.037 548.957 113.981 540.469 114.005 531.194Z" fill="#199AE7"/>
<path d="M557.312 781.269C554.373 776.297 551.361 770.755 548.344 764.597C551.305 769.554 554.272 775.126 557.312 781.269Z" fill="#199AE7"/>
<path d="M447.125 554.278C444.141 549.735 441.094 544.618 438.156 538.889C441.198 543.42 444.131 548.562 447.125 554.278Z" fill="#199AE7"/>
<path d="M491.969 459.378C495.322 455.315 499.131 451.001 503.5 446.554C500.182 450.655 496.303 454.891 491.969 459.378Z" fill="#199AE7"/>
<path d="M116.563 209.304C116.499 214.464 116.075 220.052 115.281 225.976C115.341 220.786 115.772 215.258 116.563 209.304Z" fill="#199AE7"/>
<path d="M438.156 537.607C434.306 534.658 430.792 530.865 434.815 523.5C436.152 527.845 437.083 532.415 438.156 537.607Z" fill="#199AE7"/>
<path d="M114.005 288.815C119.529 292.109 118.486 296.636 114.69 301.639C114.041 297.834 113.977 293.71 114.005 288.815Z" fill="#199AE7"/>
<path d="M539.375 744.078C537.324 740.808 535.155 736.972 532.969 732.536C535.053 735.795 537.156 739.654 539.375 744.078Z" fill="#199AE7"/>
<path d="M545.781 756.902C543.743 753.622 541.542 749.796 539.375 745.361C541.479 748.619 543.548 752.488 545.781 756.902Z" fill="#199AE7"/>
<path d="M526.562 717.147C524.483 714.3 522.329 710.894 520.156 706.888C522.254 709.722 524.372 713.155 526.562 717.147Z" fill="#199AE7"/>
<path d="M440.719 777.421C442.793 780.622 444.944 784.453 447.125 788.963C445.035 785.779 442.916 781.915 440.719 777.421Z" fill="#199AE7"/>
<path d="M114.02 450.401C114.895 454.842 115.51 460.039 115.2 465.79C114.103 461.283 113.931 456.22 114.02 450.401Z" fill="#199AE7"/>
<path d="M114.015 417.058C114.886 421.925 115.497 427.538 115.209 433.73C114.125 428.808 113.94 423.306 114.015 417.058Z" fill="#199AE7"/>
<path d="M114.007 644.048C114.851 648.165 115.513 653.033 115.204 658.155C114.097 653.873 113.962 649.336 114.007 644.048Z" fill="#199AE7"/>
<path d="M114.017 665.85C114.89 669.482 115.503 673.814 115.205 678.674C114.115 674.986 113.936 670.767 114.017 665.85Z" fill="#199AE7"/>
<path d="M447.125 788.963C448.358 790.925 449.655 793.47 450.969 796.658C449.72 794.716 448.455 792.131 447.125 788.963Z" fill="#199AE7"/>
<path d="M114.015 490.157C114.89 493.713 115.494 498.054 115.211 502.981C114.13 499.359 113.938 495.149 114.015 490.157Z" fill="#199AE7"/>
<path d="M438.156 771.009C438.979 772.188 439.848 773.881 440.719 776.139C439.882 774.977 439.042 773.25 438.156 771.009Z" fill="#199AE7"/>
<path d="M488.125 464.508C488.653 463.392 489.466 462.047 490.688 460.661C490.199 461.839 489.306 463.059 488.125 464.508Z" fill="#199AE7"/>
<path d="M532.969 731.254C531.736 730.071 530.436 728.379 529.125 726.124C530.377 727.29 531.639 729.016 532.969 731.254Z" fill="#199AE7"/>
<path d="M114.013 611.988C114.866 612.834 115.52 614.251 115.197 615.835C114.085 614.854 113.95 613.706 114.013 611.988Z" fill="#199AE7"/>
<path d="M559.875 787.681C559.067 786.491 558.191 784.799 557.313 782.551C558.141 783.723 558.976 785.451 559.875 787.681Z" fill="#199AE7"/>
<path d="M449.688 561.973C448.871 560.479 448.009 558.349 447.125 555.561C447.949 557.047 448.794 559.192 449.688 561.973Z" fill="#199AE7"/>
<path d="M520.156 705.605C519.339 704.409 518.475 702.706 517.594 700.475C518.421 701.664 519.266 703.381 520.156 705.605Z" fill="#199AE7"/>
<path d="M517.594 699.193C516.751 698.397 515.864 697.13 515.031 695.346C515.908 696.127 516.728 697.424 517.594 699.193Z" fill="#199AE7"/>
<path d="M548.344 763.315C547.505 762.244 546.599 760.56 545.781 758.185C546.673 759.229 547.474 760.966 548.344 763.315Z" fill="#199AE7"/>
<path d="M623.938 805.006C625.243 804.082 626.929 804.197 629.063 804.98C627.78 805.78 626.049 805.913 623.938 805.006Z" fill="#199AE7"/>
<path d="M119.125 206.739C119.054 207.403 118.628 208.323 117.844 209.304C117.914 208.574 118.342 207.786 119.125 206.739Z" fill="#199AE7"/>
<path d="M435.594 767.162C436.352 767.631 437.266 768.489 438.156 769.727C437.339 769.254 436.544 768.402 435.594 767.162Z" fill="#199AE7"/>
<path d="M736.165 544.019C736.59 544.112 736.613 544.365 736.688 544.995C736.007 545.751 735.276 546.131 734.125 546.584C734.393 545.831 735.078 545.005 736.165 544.019Z" fill="#199AE7"/>
<path d="M114.024 470.92C114.91 472.088 115.505 473.868 115.201 476.05C114.113 474.811 113.923 473.171 114.024 470.92Z" fill="#199AE7"/>
<path d="M529.125 724.842C528.315 723.75 527.466 722.048 526.562 719.712C527.367 720.796 528.227 722.513 529.125 724.842Z" fill="#199AE7"/>
<path d="M453.531 501.698C453.895 501.029 454.72 500.152 456.094 499.134C455.759 499.826 454.875 500.657 453.531 501.698Z" fill="#199AE7"/>
<path d="M849.438 805.459C849.845 804.922 850.666 804.64 851.94 804.352C852.129 805.122 851.868 805.895 851.24 806.917C850.533 806.681 850.192 806.197 849.438 805.459Z" fill="#199AE7"/>
<path d="M480.438 473.485C480.833 472.825 481.653 471.936 483 470.92C482.637 471.615 481.75 472.435 480.438 473.485Z" fill="#199AE7"/>
<path d="M436.875 522.217C437.249 521.2 438.091 519.9 439.438 518.37C439.076 519.405 438.209 520.669 436.875 522.217Z" fill="#199AE7"/>
<path d="M477.875 476.05C477.981 475.432 478.407 474.584 479.156 473.485C479.051 474.097 478.623 474.957 477.875 476.05Z" fill="#199AE7"/>
<path d="M475.312 478.615C475.432 478.007 475.86 477.146 476.594 476.05C476.475 476.663 476.047 477.512 475.312 478.615Z" fill="#199AE7"/>
<path d="M114.03 728.689C114.944 729.052 115.481 729.989 115.212 731.254C114.155 730.807 113.903 730.035 114.03 728.689Z" fill="#199AE7"/>
<path d="M114.022 517.088C114.921 517.451 115.478 518.389 115.216 519.653C114.159 519.205 113.919 518.434 114.022 517.088Z" fill="#199AE7"/>
<path d="M439.437 518.37C439.653 517.74 440.496 516.885 442 515.805C441.795 516.435 440.93 517.29 439.437 518.37Z" fill="#199AE7"/>
<path d="M462.5 492.721C462.6 492.114 463.032 491.276 463.781 490.157C463.677 490.748 463.255 491.62 462.5 492.721Z" fill="#199AE7"/>
<path d="M459.938 495.286C460.058 494.667 460.488 493.818 461.219 492.721C461.094 493.334 460.672 494.196 459.938 495.286Z" fill="#199AE7"/>
<path d="M885.313 430.128C885.227 431.054 884.803 431.288 884.031 431.108C884.063 429.99 884.494 429.571 885.313 430.128Z" fill="#199AE7"/>
<path d="M245.634 912.077C245.937 912.177 245.952 912.446 245.969 913.119C245.97 913.523 245.109 913.327 244.699 913.177C244.617 912.742 244.969 912.481 245.634 912.077Z" fill="#199AE7"/>
<path d="M114.091 409.363C115.409 409.354 115.633 409.852 114.759 410.607C114.422 410.854 113.757 409.86 114.091 409.363Z" fill="#199AE7"/>
<path d="M443.286 514.523C443.225 514.087 443.678 513.274 444.56 511.958C444.595 512.352 444.197 513.249 443.286 514.523Z" fill="#199AE7"/>
<path d="M458.661 496.569C458.599 496.331 459.069 495.94 459.937 495.286C459.955 495.486 459.575 495.951 458.661 496.569Z" fill="#199AE7"/>
<path d="M452.251 504.263C452.224 503.754 452.681 502.971 453.531 501.698C453.529 502.136 453.132 503.063 452.251 504.263Z" fill="#199AE7"/>
<path d="M450.978 505.546C450.898 505.311 451.376 504.921 452.249 504.263C452.274 504.46 451.903 504.926 450.978 505.546Z" fill="#199AE7"/>
<path d="M449.695 506.828C449.622 506.599 450.09 506.202 450.967 505.546C450.997 505.743 450.616 506.204 449.695 506.828Z" fill="#199AE7"/>
<path d="M447.13 509.393C447.07 508.93 447.535 508.139 448.405 506.828C448.427 507.228 448.04 508.147 447.13 509.393Z" fill="#199AE7"/>
<path d="M445.851 510.675C445.778 510.454 446.241 510.054 447.122 509.393C447.157 509.588 446.773 510.043 445.851 510.675Z" fill="#199AE7"/>
<path d="M444.568 511.958C444.51 511.732 444.966 511.33 445.842 510.675C445.869 510.877 445.475 511.328 444.568 511.958Z" fill="#199AE7"/>
<path d="M442.006 515.805C441.938 515.588 442.378 515.173 443.277 514.523C443.329 514.727 442.921 515.167 442.006 515.805Z" fill="#199AE7"/>
<path d="M474.039 479.897C473.966 479.683 474.422 479.278 475.31 478.615C475.35 478.807 474.959 479.256 474.039 479.897Z" fill="#199AE7"/>
<path d="M485.568 467.073C485.51 466.839 485.975 466.444 486.844 465.79C486.86 465.99 486.476 466.452 485.568 467.073Z" fill="#199AE7"/>
<path d="M484.288 468.355C484.218 468.126 484.686 467.731 485.561 467.073C485.588 467.27 485.206 467.731 484.288 468.355Z" fill="#199AE7"/>
<path d="M483.005 470.92C482.944 470.467 483.409 469.674 484.28 468.355C484.303 468.746 483.917 469.662 483.005 470.92Z" fill="#199AE7"/>
<path d="M917.344 699.151C917.094 699.351 916.72 698.829 916.062 697.925C916.259 697.837 916.739 698.132 917.344 699.151Z" fill="#199AE7"/>
<path d="M916.063 697.908C915.592 697.95 914.815 697.481 913.5 696.628C913.895 696.628 914.825 697.013 916.063 697.908Z" fill="#199AE7"/>
<path d="M913.5 696.627C913.257 696.655 912.866 696.192 912.219 695.346C912.426 695.353 912.889 695.746 913.5 696.627Z" fill="#199AE7"/>
<path d="M470.193 483.744C470.13 483.515 470.594 483.119 471.467 482.462C471.492 482.661 471.106 483.119 470.193 483.744Z" fill="#199AE7"/>
<path d="M468.91 485.027C468.858 484.784 469.324 484.395 470.188 483.744C470.199 483.95 469.815 484.414 468.91 485.027Z" fill="#199AE7"/>
<path d="M467.631 487.592C467.565 487.111 468.036 486.331 468.905 485.027C468.925 485.433 468.548 486.363 467.631 487.592Z" fill="#199AE7"/>
<path d="M466.35 488.874C466.284 488.633 466.752 488.242 467.624 487.592C467.645 487.796 467.266 488.26 466.35 488.874Z" fill="#199AE7"/>
<path d="M151.156 229.719C151.001 306.928 150.846 384.137 150.405 462.364C150.356 463.973 150.592 464.564 150.829 465.156C150.783 510.356 150.736 555.555 150.319 602.071C150.169 606.571 150.389 609.754 150.609 612.937C150.615 617.855 150.622 622.774 150.261 628.979C150.121 633.444 150.35 636.624 150.579 639.806C150.593 642.526 150.606 645.246 150.257 649.251C150.121 655.354 150.346 660.171 150.57 664.988C150.537 674.89 150.503 684.791 150.116 696.181C149.967 699.691 150.17 701.713 150.373 703.735C150.414 704.786 150.455 705.837 150.147 708.171C150.013 712.594 150.229 715.734 150.444 718.876C150.67 733.857 150.896 748.84 151.001 764.597C149.682 762.321 147.439 759.271 147.437 756.22C147.275 582.974 147.293 409.728 147.368 236.481C147.369 233.453 148.28 230.426 149.315 227.258C150.294 227.985 150.725 228.852 151.156 229.719Z" fill="#199AE7"/>
<path d="M625.219 800.845C625.238 801.614 624.651 801.732 624.358 801.788C624.019 724.431 623.94 647.02 623.937 569.608C623.934 439.934 623.98 310.261 624.048 179.808C624.446 183.979 625.115 188.929 625.116 193.879C625.182 395.944 625.185 598.009 625.219 800.845Z" fill="#199AE7"/>
<path d="M780.25 907.981C606.769 908.319 433.057 908.314 259.345 908.372C253.8 908.374 248.253 909.043 242.125 909.512C244.222 908.727 246.901 907.048 249.583 907.047C424.67 906.925 599.756 906.937 774.844 906.969C776.569 906.969 778.295 907.41 780.25 907.981Z" fill="#199AE7"/>
<path d="M407.406 212.023C399.589 212.466 391.493 212.263 383.396 212.236C312.364 212 241.333 211.77 170.302 211.65C166.296 211.643 162.288 212.606 157.562 213.151C159.733 211.887 162.62 209.463 165.512 209.457C243.695 209.253 321.878 209.277 400.061 209.39C402.417 209.392 404.772 210.739 407.406 212.023Z" fill="#199AE7"/>
<path d="M659.306 218.281C659.651 275.216 659.426 332.655 659.387 390.095C659.314 501.057 659.327 612.02 659.363 722.982C659.367 734.466 659.757 745.95 659.813 758.185C658.85 755.78 657.338 752.624 657.336 749.468C657.224 575.551 657.23 401.634 657.305 227.716C657.306 224.739 658.294 221.763 659.306 218.281Z" fill="#199AE7"/>
<path d="M891.719 723.004C884.384 723.217 876.536 722.924 868.688 722.949C812.407 723.122 756.125 723.362 699.845 723.559C698.856 723.563 697.867 723.304 696.313 723.09C696.1 720.942 695.705 718.819 695.704 716.697C695.677 650.672 695.682 584.649 695.722 518.625C695.723 516.145 696.124 513.666 696.811 510.675C697.324 576.294 697.361 642.422 697.406 708.551C697.415 721.365 697.426 721.371 709.288 721.384C766.931 721.451 824.575 721.497 882.217 721.621C885.214 721.628 888.209 722.288 891.719 723.004Z" fill="#199AE7"/>
<path d="M695.688 256.659C698.91 255.656 702.131 253.785 705.356 253.78C763.452 253.688 821.547 253.836 879.643 253.872C883.443 253.874 887.243 253.375 891.719 252.907C888.24 254.025 884.09 256.477 879.93 256.495C822.598 256.745 765.266 256.658 707.934 256.662C704.622 256.662 701.31 256.735 697.057 256.754C696.118 256.735 695.688 256.659 695.688 256.659Z" fill="#199AE7"/>
<path d="M662.375 763.315C668.524 763.521 675.082 764.819 681.644 764.838C745.409 765.034 809.175 765.027 872.942 765.032C877.256 765.032 881.57 764.669 886.594 764.537C884.172 765.446 881.042 767.027 877.909 767.035C810.585 767.186 743.259 767.225 675.934 767.027C671.55 767.014 667.168 764.932 662.375 763.315Z" fill="#199AE7"/>
<path d="M187.101 767.162C187.067 687.796 187.025 608.429 187.032 529.063C187.032 526.284 187.521 523.505 188.549 520.935C189.409 602.581 189.502 684.017 189.594 765.454C189.594 765.454 189.428 765.874 188.871 766.295C187.909 766.866 187.505 767.013 187.101 767.162Z" fill="#199AE7"/>
<path d="M189.11 764.597C188.582 683.818 188.508 602.435 188.331 520.248C188.229 519.443 188.57 518.687 188.886 518.37C189.762 521.055 190.81 524.058 190.813 527.06C190.899 603.013 190.891 678.966 190.816 754.92C190.813 757.945 190 760.969 189.11 764.597Z" fill="#199AE7"/>
<path d="M868.415 209.304C874.979 209.305 880.787 209.305 886.594 209.305C886.587 209.732 886.581 210.159 886.575 210.586C814.407 210.586 742.238 210.586 670.069 210.586C670.068 210.159 670.065 209.731 670.062 209.304C735.928 209.304 801.793 209.304 868.415 209.304Z" fill="#199AE7"/>
<path d="M698.25 509.366C699.506 508.917 701.489 508.111 703.472 508.111C752.753 508.122 802.034 508.22 852 508.303C849.54 508.67 846.396 509.351 843.249 509.356C795.159 509.417 747.068 509.39 698.25 509.366Z" fill="#199AE7"/>
<path d="M853.281 467.501C802.295 468.124 751.272 468.264 700.249 468.355C699.274 468.356 698.299 467.786 696.969 466.759C747.933 465.937 799.251 465.83 850.57 465.79C851.461 465.789 852.352 466.587 853.281 467.501Z" fill="#199AE7"/>
<path d="M192.156 516.123C193.315 515.518 195.056 514.901 196.799 514.896C244.494 514.725 292.189 514.611 339.883 514.523C341.659 514.519 343.433 514.872 345.906 515.336C344.365 516.108 342.125 517.03 339.886 517.034C292.096 517.112 244.306 517.093 196.516 517.054C195.257 517.053 193.998 516.626 192.156 516.123Z" fill="#199AE7"/>
<path d="M150.814 228.54C150.422 228.337 150.17 227.511 149.875 226.239C150.561 222.94 151.292 220.092 152.438 216.999C152.22 220.477 151.587 224.198 150.814 228.54Z" fill="#199AE7"/>
<path d="M187.141 767.279C187.497 766.546 187.727 766.351 188.312 765.879C188.295 766.359 187.922 767.116 187.246 768.408C186.967 768.569 186.991 768.192 187.141 767.279Z" fill="#199AE7"/>
<path d="M185.75 769.727C185.815 769.524 186.215 769.036 187.031 768.444C186.993 768.709 186.54 769.074 185.75 769.727Z" fill="#199AE7"/>
<path d="M156.281 213.151C156.248 213.36 155.838 213.813 155 214.434C155.016 214.199 155.46 213.796 156.281 213.151Z" fill="#199AE7"/>
<path d="M429.755 420.635C416.456 435.594 403.156 450.554 388.995 466.008C387.32 467.55 386.505 468.594 385.69 469.639C385.69 469.639 385.703 469.476 385.15 469.583C376.29 470.652 367.987 472.406 359.677 472.447C307.122 472.705 254.563 472.563 202.006 472.624C197.966 472.63 193.926 473.185 189.886 473.485C189.886 473.485 189.463 473.49 189.635 472.463C189.96 467.551 190.246 463.667 190.248 459.781C190.28 397.457 190.26 335.134 190.292 272.81C190.3 257.83 191.344 256.691 205.054 256.757C267.443 257.053 329.83 257.396 392.22 257.723C392.22 257.723 392.117 257.831 392.309 258.162C392.952 258.857 393.403 259.22 393.854 259.583C393.854 259.583 393.671 259.574 393.817 260.019C395.455 261.818 396.946 263.173 398.438 264.527C398.438 264.527 398.294 264.538 398.439 264.963C399.568 266.155 400.55 266.924 401.534 267.692C401.534 267.692 401.429 267.785 401.602 268.065C402.087 268.786 402.49 269.064 402.986 269.182C402.986 269.182 403.146 269.186 403.291 269.637C403.716 270.548 404.096 270.859 404.576 271.025C404.576 271.025 404.295 271.312 404.561 271.581C405.478 272.433 406.13 273.014 406.782 273.595C406.782 273.595 406.863 273.571 407.003 274.036C407.782 275.063 408.42 275.626 409.058 276.188C409.058 276.188 408.791 276.766 409.08 276.832C409.678 277.355 410.074 277.685 410.557 277.89C410.557 277.89 410.43 277.98 410.64 278.269C411.262 278.895 411.672 279.231 412.082 279.566C412.082 279.566 411.959 279.648 412.169 279.958C412.791 280.638 413.204 281.007 413.616 281.378C413.616 281.378 413.424 281.413 413.584 281.861C414.695 283.071 415.646 283.831 416.595 284.593C416.595 284.593 416.11 285.13 416.42 285.433C418.741 287.631 420.753 289.528 422.763 291.425C422.763 291.425 422.517 291.487 422.73 291.73C423.39 292.32 423.837 292.668 424.284 293.017C424.284 293.017 424.132 293.038 424.334 293.347C424.961 294.032 425.385 294.407 425.809 294.783C425.809 294.783 425.576 294.804 425.792 295.053C426.443 295.645 426.877 295.989 427.312 296.331C427.312 296.331 427.2 296.367 427.403 296.694C428.019 297.402 428.434 297.783 428.849 298.165C428.849 298.165 428.74 298.139 428.825 298.6C430.097 300.057 431.284 301.052 432.471 302.048C432.471 302.048 432.897 302.252 433.229 302.928C434.01 304.083 434.46 304.564 434.908 305.045C434.908 305.045 434.602 305.005 434.847 305.216C435.509 305.795 435.928 306.166 436.347 306.538C436.347 306.538 435.926 306.877 436.241 307.21C437.476 308.389 438.396 309.232 439.315 310.076C439.782 310.242 440.124 310.566 440.528 311.909C441.151 313.661 441.585 314.552 441.996 316.223C441.953 327.507 442.088 338.015 441.878 348.516C441.475 368.651 440.874 388.78 440.355 408.913C440.355 408.913 440.391 409.009 439.965 409.202C438.816 410.329 438.091 411.264 437.366 412.199C437.366 412.199 437.367 412.363 436.903 412.593C435.754 413.43 435.068 414.039 434.382 414.648C434.382 414.648 434.146 414.265 434.116 414.55C433.65 415.228 433.213 415.623 432.778 416.018C432.778 416.018 433.122 415.614 432.843 416.046C431.715 417.602 430.867 418.724 430.019 419.846C430.019 419.846 430.298 419.532 430.268 419.702C429.877 419.949 429.715 420.203 429.755 420.635ZM372.488 435.171C384.213 422.077 396.08 409.13 407.533 395.757C409.68 393.25 411.178 389.065 411.258 385.606C411.646 368.63 411.664 351.631 411.292 334.654C411.218 331.213 409.623 327.101 407.486 324.551C399.251 314.729 390.665 305.236 381.849 296.037C379.713 293.809 376.196 291.999 373.306 291.985C326.579 291.761 279.849 291.927 233.12 291.785C227.81 291.769 225.614 294.469 225.332 299.596C225.043 304.868 225.155 310.171 225.166 315.46C225.248 355.551 225.348 395.643 226.055 436.816C228.624 437.583 231.191 439.013 233.762 439.021C276.748 439.141 319.735 439.148 362.723 438.932C365.721 438.917 368.711 436.973 372.488 435.171ZM270.374 290.301C305.034 290.301 339.695 290.301 374.355 290.301C374.351 289.898 374.346 289.494 374.342 289.092C326.79 289.092 279.239 289.092 231.688 289.092C231.686 289.496 231.683 289.898 231.681 290.302C244.07 290.302 256.46 290.302 270.374 290.301Z" fill="#199AE7"/>
<path d="M190.875 474.231C194.481 473.472 198.518 472.878 202.555 472.873C255.069 472.808 307.585 472.959 360.099 472.685C368.402 472.641 376.699 470.769 385.625 469.638C381.323 471.219 376.426 474.202 371.457 474.376C344.861 475.31 318.245 475.772 291.635 475.96C261.455 476.173 231.273 475.96 201.093 475.823C197.829 475.807 194.568 475.073 190.875 474.231Z" fill="#199AE7"/>
<path d="M440.719 409.363C440.703 389.432 441.341 369.196 441.771 348.956C441.995 338.4 441.85 327.837 442.177 316.522C442.48 315.768 443.044 315.746 443.044 315.746C443.152 345.081 443.298 374.416 443.28 403.751C443.279 405.52 441.981 407.288 440.719 409.363Z" fill="#199AE7"/>
<path d="M422.781 290.097C421.221 288.839 419.463 287.151 417.656 284.967C419.267 286.204 420.926 287.936 422.781 290.097Z" fill="#199AE7"/>
<path d="M433.031 301.639C431.959 300.909 430.611 299.673 429.188 297.792C430.327 298.475 431.541 299.804 433.031 301.639Z" fill="#199AE7"/>
<path d="M398.437 263.166C397.33 262.34 396.022 261.083 394.594 259.319C395.728 260.119 396.982 261.427 398.437 263.166Z" fill="#199AE7"/>
<path d="M416.375 283.685C415.666 283.327 414.779 282.503 413.812 281.12C414.554 281.447 415.376 282.332 416.375 283.685Z" fill="#199AE7"/>
<path d="M438.156 411.928C438.559 411.261 439.412 410.412 440.719 409.363C440.318 410.024 439.463 410.884 438.156 411.928Z" fill="#199AE7"/>
<path d="M430.469 419.623C430.842 418.932 431.701 418.086 433.031 417.058C432.653 417.739 431.804 418.603 430.469 419.623Z" fill="#199AE7"/>
<path d="M443.272 315.176C443.361 315.745 442.788 315.77 442.504 315.736C441.75 314.633 441.28 313.564 440.719 311.899C441.48 312.404 442.332 313.507 443.272 315.176Z" fill="#199AE7"/>
<path d="M439.438 309.334C438.729 308.945 437.85 308.109 436.875 306.769C437.608 307.139 438.438 308.013 439.438 309.334Z" fill="#199AE7"/>
<path d="M402.281 267.013C401.283 266.635 399.958 265.811 398.438 264.449C399.479 264.796 400.717 265.682 402.281 267.013Z" fill="#199AE7"/>
<path d="M386.906 469.638C387.292 468.949 388.154 468.104 389.469 467.073C389.075 467.751 388.229 468.617 386.906 469.638Z" fill="#199AE7"/>
<path d="M435.594 414.493C435.724 414.117 436.173 413.736 436.875 413.211C436.723 413.54 436.316 414.013 435.594 414.493Z" fill="#199AE7"/>
<path d="M407.406 272.143C406.758 272.033 405.902 271.608 404.844 270.861C405.493 270.968 406.347 271.398 407.406 272.143Z" fill="#199AE7"/>
<path d="M408.687 275.99C408.38 275.748 407.948 274.906 407.406 273.426C407.719 273.656 408.14 274.522 408.687 275.99Z" fill="#199AE7"/>
<path d="M436.875 305.483C436.637 305.534 436.225 305.094 435.594 304.207C435.817 304.169 436.26 304.58 436.875 305.483Z" fill="#199AE7"/>
<path d="M394.594 259.311C394.129 259.382 393.298 258.946 392.031 258.042C392.472 257.984 393.351 258.394 394.594 259.311Z" fill="#199AE7"/>
<path d="M435.594 304.204C435.35 304.212 434.938 303.772 434.312 302.922C434.542 302.927 434.983 303.341 435.594 304.204Z" fill="#199AE7"/>
<path d="M412.531 278.55C412.292 278.609 411.87 278.181 411.25 277.278C411.483 277.223 411.916 277.642 412.531 278.55Z" fill="#199AE7"/>
<path d="M413.813 281.116C413.568 281.162 413.149 280.728 412.531 279.84C412.768 279.803 413.204 280.22 413.813 281.116Z" fill="#199AE7"/>
<path d="M403.563 268.207C403.24 268.483 402.807 268.119 402.281 267.084C402.598 266.842 403.019 267.226 403.563 268.207Z" fill="#199AE7"/>
<path d="M429.188 297.789C428.939 297.833 428.524 297.396 427.906 296.511C428.143 296.479 428.581 296.893 429.188 297.789Z" fill="#199AE7"/>
<path d="M424.063 292.653C423.833 292.73 423.418 292.294 422.781 291.386C422.999 291.323 423.439 291.732 424.063 292.653Z" fill="#199AE7"/>
<path d="M426.625 293.941C426.382 293.989 425.965 293.555 425.344 292.665C425.577 292.626 426.014 293.042 426.625 293.941Z" fill="#199AE7"/>
<path d="M404.844 270.8C404.484 271.021 404.046 270.635 403.563 269.618C403.907 269.444 404.324 269.848 404.844 270.8Z" fill="#199AE7"/>
<path d="M411.25 277.222C410.912 277.423 410.489 277.029 409.969 276.051C410.313 275.83 410.744 276.217 411.25 277.222Z" fill="#199AE7"/>
<path d="M225.469 436.559C228.681 436.484 232.199 437.161 235.719 437.166C275.69 437.233 315.661 437.229 355.631 437.151C360.707 437.141 365.781 436.606 371.531 436.294C369.197 437.127 366.19 438.707 363.175 438.72C319.958 438.894 276.742 438.89 233.525 438.791C230.94 438.785 228.359 437.623 225.469 436.559Z" fill="#199AE7"/>
<path d="M270.025 290.096C256.797 290.097 244.336 290.097 231.875 290.097C231.877 289.67 231.88 289.242 231.882 288.815C279.708 288.815 327.534 288.815 375.361 288.815C375.366 289.242 375.37 289.669 375.375 290.096C340.513 290.096 305.653 290.096 270.025 290.096Z" fill="#199AE7"/>
</g>
<defs>
<clipPath id="clip0_31_425">
<rect width="820" height="949" fill="white" transform="translate(114 49)"/>
</clipPath>
</defs>
</svg>
