<svg width="2183" height="740" viewBox="0 0 2183 740" fill="none" xmlns="http://www.w3.org/2000/svg">
<path d="M310.598 300.401C308.667 303.292 306.737 306.182 304.065 309.404C300.426 313.315 297.527 316.894 294.628 320.473C294.628 320.473 294.506 320.292 294.166 320.4C292.978 321.858 292.131 323.206 291.284 324.555C291.284 324.555 291.106 324.389 290.914 324.555C290.409 325.118 290.097 325.516 289.785 325.913C289.785 325.913 289.73 325.547 289.634 325.788C289.237 326.433 288.936 326.838 288.635 327.243C288.635 327.243 288.57 326.897 288.462 327.132C288.05 327.772 287.746 328.178 287.443 328.583C287.443 328.583 287.51 328.283 287.266 328.447C286.431 329.486 285.841 330.361 285.25 331.236C285.25 331.236 285.213 330.962 285.017 331.123C284.4 331.883 283.979 332.482 283.558 333.082C283.558 333.082 283.573 333.147 283.231 333.299C282.457 334.031 282.024 334.612 281.591 335.193C281.591 335.193 281.485 334.842 281.384 335.05C281.005 335.672 280.728 336.087 280.451 336.502C280.451 336.502 280.377 336.202 280.234 336.405C279.783 336.995 279.475 337.383 279.167 337.77C279.167 337.77 279.086 337.427 278.977 337.646C278.568 338.264 278.268 338.664 277.967 339.063C277.967 339.063 277.889 338.732 277.77 338.946C277.334 339.543 277.017 339.926 276.699 340.31C276.699 340.31 276.64 339.96 276.536 340.193C276.121 340.816 275.81 341.207 275.499 341.598C275.499 341.598 275.454 341.254 275.345 341.493C274.927 342.121 274.617 342.512 274.307 342.903C274.307 342.903 274.251 342.562 274.144 342.796C273.728 343.423 273.418 343.814 273.109 344.205C273.109 344.205 273.139 343.866 272.992 344.086C272.438 344.905 272.03 345.503 271.622 346.102C271.622 346.102 271.629 346.188 271.282 346.348C270.49 347.076 270.045 347.645 269.599 348.214C269.599 348.214 269.481 347.853 269.379 348.059C268.962 348.664 268.647 349.064 268.332 349.463C268.332 349.463 268.275 349.084 268.18 349.324C267.772 349.968 267.458 350.37 267.144 350.773C267.144 350.773 267.227 350.456 266.997 350.645C266.207 351.727 265.648 352.619 265.088 353.512C265.088 353.512 264.937 353.265 264.758 353.411C264.242 353.921 263.905 354.284 263.568 354.647C263.568 354.647 263.504 354.299 263.409 354.544C263.009 355.192 262.704 355.594 262.399 355.997C262.399 355.997 262.358 355.643 262.256 355.892C261.852 356.548 261.551 356.955 261.25 357.362C261.25 357.362 261.19 356.986 261.088 357.221C260.675 357.861 260.364 358.266 260.053 358.672C260.053 358.672 260.003 358.284 259.914 358.53C259.532 359.194 259.239 359.611 258.946 360.029C258.946 360.029 258.898 359.675 258.782 359.905C258.367 360.541 258.068 360.947 257.769 361.354C257.769 361.354 257.712 360.995 257.602 361.223C257.205 361.862 256.918 362.274 256.631 362.686C256.631 362.686 256.615 362.357 256.49 362.582C256.104 363.214 255.842 363.621 255.58 364.027C255.58 364.027 255.592 363.821 255.357 363.989C254.702 364.75 254.283 365.343 253.864 365.937C253.864 365.937 253.825 365.868 253.519 366.034C252.65 367.014 252.088 367.829 251.526 368.643C251.526 368.643 251.498 368.528 251.311 368.743C250.84 369.303 250.555 369.647 250.271 369.991C250.271 369.991 250.299 369.861 249.989 370.046C246.42 375.592 249.589 378.44 253.191 381.119C253.191 381.119 252.882 381.204 252.959 381.681C255.3 386.303 257.564 390.448 259.828 394.594C259.828 394.594 259.794 394.626 259.837 395.073C260.685 396.961 261.49 398.403 262.296 399.845C262.296 399.845 262.217 399.831 262.252 400.289C265.005 407.214 267.515 413.801 270.53 420.095C272.028 423.223 274.454 425.813 276.46 428.646C276.46 428.646 276.479 428.667 276.481 429.187C279.64 435.903 282.796 442.099 285.953 448.294C285.953 448.294 286.018 448.325 285.995 448.868C289.521 457.551 292.904 465.786 296.698 473.785C298.188 476.928 300.596 479.544 302.586 482.399C302.586 482.399 302.811 482.602 302.788 483.302C306.037 490.336 309.309 496.669 312.581 503.002C312.581 503.002 312.306 503.352 312.388 503.615C313.179 504.975 313.888 506.071 314.598 507.168C314.598 507.168 314.555 507.218 314.586 507.649C315.416 509.532 316.214 510.983 317.012 512.434C317.012 512.434 316.908 512.47 316.962 512.917C318.56 516.136 320.105 518.907 321.65 521.679C321.65 521.679 321.866 521.849 321.871 522.459C322.597 524.331 323.319 525.594 324.04 526.856C324.04 526.856 324.06 526.878 324.066 527.356C324.887 529.231 325.704 530.629 326.52 532.027C326.52 532.027 326.447 532.141 326.49 532.574C328.2 536.138 329.867 539.269 331.533 542.4C331.533 542.4 331.447 542.4 331.43 542.851C333.105 546.413 334.799 549.524 336.492 552.635C336.492 552.635 335.958 552.87 336.154 553.215C337.06 554.665 337.77 555.768 338.479 556.872C338.479 556.872 338.363 556.93 338.409 557.378C340.792 562.336 343.13 566.845 345.467 571.354C345.467 571.354 345.48 571.378 345.487 571.855C346.298 573.742 347.103 575.152 347.908 576.562C347.908 576.562 347.816 576.632 347.853 577.1C348.663 580.369 349.436 583.169 350.421 586.732C347.737 586.882 345.443 587.118 343.149 587.121C322.564 587.15 301.978 587.083 281.393 587.171C275.065 587.198 268.732 587.651 263.2 583.31C263.2 583.31 263.288 583.299 263.247 582.859C262.033 580.531 260.859 578.641 259.686 576.752C259.686 576.752 259.765 576.681 259.705 576.227C258.079 573.04 256.512 570.307 254.946 567.574C254.946 567.574 255.008 567.519 254.972 567.07C254.106 565.212 253.276 563.804 252.446 562.396C252.446 562.396 252.54 562.386 252.526 562.096C251.909 561.058 251.307 560.31 250.704 559.562C224.146 506.027 197.595 452.488 171.003 398.973C169.978 396.91 168.555 395.087 166.697 392.473C164.762 391.443 163.448 390.789 162.132 390.785C140.076 390.72 118.019 390.704 95.9633 390.803C94.3005 390.81 92.6412 391.765 90.9802 392.279C86.047 394.398 86.9334 399.262 86.9048 403.425C86.7417 427.182 86.7426 450.94 86.6749 474.699C86.5718 510.882 86.4609 547.066 86.3403 583.25C86.3346 584.968 86.2029 586.685 86.0889 589.366C74.973 589.366 64.0241 589.366 53.0752 589.366C52.7429 590.052 52.4106 590.738 52.0783 591.425C70.0815 611.929 87.984 632.539 107.495 652.521C109.409 653.446 110.941 653.912 112.474 653.912C246.501 653.94 380.527 653.94 514.554 653.859C516.818 653.857 519.081 652.831 521.345 652.282C521.417 651.791 521.489 651.299 521.896 650.351C522.556 649.658 522.742 649.327 522.788 648.901C524.498 647.53 526.433 646.399 527.884 644.751C543.442 627.083 558.924 609.334 574.995 591.118C575.748 589.95 575.932 589.271 575.708 588.299C572.57 587.712 569.84 587.166 567.11 587.162C511.079 587.075 455.049 587.049 398.998 586.411C398.966 428.211 398.961 270.611 398.897 113.011C398.896 109.15 398.236 105.29 397.849 100.955C397.813 99.5344 397.81 98.5881 398.363 97.6164C476.52 97.5491 554.122 97.5425 631.724 97.3847C636.796 97.3744 638.177 99.658 638.112 104.826C637.921 120.075 637.999 135.33 638.09 150.581C638.107 153.363 638.682 156.142 639 158.922C636.492 162.674 634.288 166.741 631.409 170.11C626.199 176.208 620.587 181.889 614.314 187.515C611.344 187.019 609.202 186.52 607.059 186.517C568.669 186.467 530.279 186.474 491.889 186.488C490.326 186.489 488.763 186.686 487.2 186.791C489.026 187.799 490.777 187.8 492.527 187.799C528.74 187.789 564.954 187.765 601.167 187.8C603.51 187.802 605.854 188.254 608.197 188.496C604.047 188.667 599.898 188.979 595.748 188.985C560.473 189.033 525.198 189.155 489.925 188.906C484.133 188.865 481.993 190.313 482.076 197.198C482.437 227.074 482.197 256.958 482.373 286.838C482.398 291.069 481.507 296.595 488.029 297.49C488.268 298.211 488.236 298.814 488.333 298.841C488.9 298.994 489.498 299.069 490.085 299.069C526.637 299.081 563.189 299.107 599.741 299.005C601.322 299.001 602.901 297.818 604.481 297.185C606.916 296.005 608.18 296.585 608.188 299.807C608.245 321.838 608.378 343.868 608.426 365.899C608.429 367.154 608.284 368.868 607.563 369.592C601.839 375.352 595.958 380.924 589.246 386.293C585.811 385.849 583.255 385.51 580.699 385.507C549.055 385.476 517.411 385.493 485.442 385.652C484.562 386.6 484.006 387.396 483.451 388.191C483.372 388.575 483.22 388.919 482.447 389.687C481.37 399.283 480.653 408.41 480.382 417.553C480.215 423.177 480.974 428.829 480.892 434.461C480.678 449.234 479.942 464.005 480.025 478.772C480.056 484.311 481.775 489.838 482.724 495.371C482.724 495.371 482.399 495.325 482.54 495.65C483.479 500.538 486.549 500.758 489.917 500.744C503.835 500.684 517.753 500.788 531.669 500.649C533.962 500.627 536.236 499.612 538.541 499.213C540.04 498.954 541.605 498.736 543.096 498.926C546.763 499.394 550.401 500.604 554.057 500.639C572.842 500.82 591.629 500.659 610.415 500.781C614.138 500.805 617.858 501.543 621.579 501.952C621.966 502.007 622.275 502.207 622.792 503.11C623.377 503.993 623.677 504.319 623.976 504.646C623.976 504.646 623.801 504.648 624.016 504.814C624.546 505.301 624.86 505.622 625.175 505.943C625.175 505.943 624.991 505.987 625.243 506.086C625.851 506.46 626.208 506.734 626.565 507.008C626.565 507.008 626.545 506.595 626.71 506.718C626.874 506.842 627.033 507.156 627.033 507.156L627.38 507.156C631.182 510.859 634.983 514.562 638.678 519.168C638.39 522.645 638.062 525.217 638.053 527.791C637.983 548.332 637.974 568.874 637.946 589.415C627.453 589.483 616.959 589.446 606.47 589.714C604.508 589.764 601.987 590.401 600.709 591.833C580.324 614.672 560.096 637.681 539.849 660.669C538.9 661.746 538.108 662.991 536.616 665.004C539.814 668.496 542.524 672.879 546.287 675.066C548.833 676.545 553.365 676.036 556.133 674.503C564.663 669.778 573.327 666.887 582.916 668.336C584.646 668.598 586.465 668.887 588.02 669.687C600.019 675.857 609.406 694.953 607.6 709.271C605.801 723.527 593.67 737.315 580.002 739.65C562.8 742.588 542.945 726.728 542.557 703.943C542.474 699.118 541.301 695.76 538.255 692.509C532.733 686.616 527.515 680.377 521.676 673.728C520.889 672.829 520.597 672.484 520.301 671.71C520.292 670.713 520.287 670.142 520.102 669.274C518.575 668.768 517.228 668.378 515.881 668.378C379.153 668.349 242.426 668.339 105.699 668.447C103.605 668.448 101.513 669.936 99.1027 671.002C98.3861 671.668 97.987 672.062 97.5879 672.456C70.5127 643.221 43.2064 614.236 16.5376 584.558C10.4655 577.801 6.59894 568.643 1.95473 559.627C1.66902 553.33 1.14587 547.996 0.622725 542.663C0.564855 539.525 0.506986 536.387 0.668432 532.432C0.800688 530.933 0.713631 530.251 0.626609 529.57C0.566779 528.568 0.506914 527.565 0.891051 525.828C1.41293 517.221 1.49937 509.348 1.52805 501.474C1.52892 501.236 0.926157 500.995 0.604826 500.756C0.546085 498.054 0.487382 495.352 0.731529 491.637C0.888474 487.02 0.742639 483.415 0.596839 479.811C0.541693 478.395 0.486582 476.978 0.833399 474.84C1.02 470.345 0.804719 466.572 0.589397 462.799C0.534904 456.197 0.480411 449.595 0.810273 442.246C0.994227 440.3 0.793827 439.102 0.593463 437.903C0.536755 436.069 0.480011 434.234 0.846832 431.655C2.79798 420.544 4.03727 410.184 0.61786 399.944C0.558501 398.935 0.499143 397.927 0.742493 395.955C1.57768 389.954 2.30671 384.928 2.52628 379.874C2.59464 378.301 1.28423 376.655 0.604972 375.041C0.547973 372.776 0.491011 370.51 0.658956 367.448C0.789905 365.966 0.695914 365.281 0.601922 364.596C0.544417 361.457 0.486873 358.319 0.727681 354.17C0.881648 349.99 0.737228 346.82 0.592773 343.651C0.539188 340.511 0.485603 337.372 0.711416 333.316C0.86404 330.913 0.737192 329.427 0.610345 327.942C0.552621 327.333 0.49486 326.725 0.732981 325.232C0.887783 320.299 0.746705 316.25 0.605625 312.202C0.54801 308.637 0.490394 305.073 0.734215 300.461C0.890941 294.955 0.746341 290.496 0.601704 286.038C0.543582 285.029 0.485457 284.021 0.564964 282.364C0.785186 281.404 0.750734 281.099 0.599272 280.801C0.541293 277.662 0.483316 274.522 0.731529 270.328C1.60015 250.11 2.21003 230.948 2.62829 211.78C2.65926 210.362 1.31186 208.907 0.60519 207.469C0.547285 204.343 0.489378 201.217 0.876275 197.273C3.28377 192.947 3.92185 189.556 0.601341 186.512C0.54576 183.38 0.490176 180.248 0.743074 176.108C1.49991 168.715 2.24691 162.332 2.28343 155.944C2.30504 152.174 1.20134 148.396 0.603701 144.622C0.545505 142.782 0.487309 140.941 0.889344 138.297C1.77579 133.205 2.202 128.918 2.62822 124.63C2.62822 124.63 2.6321 124.769 2.86536 124.719C3.45182 123.907 3.80499 123.145 4.15816 122.383C9.88987 115.782 15.6022 109.16 21.3587 102.584C27.0306 96.1058 27.0083 96.1692 21.6316 89.7552C16.3965 83.5102 11.0218 77.3802 6.1341 70.8157C-1.55732 60.4855 -2.16633 37.791 5.16161 27.1455C9.80339 20.4023 14.9276 13.9342 20.5113 8.13031C31.8816 -3.68834 55.2682 -2.40833 66.7357 10.5796C71.8156 16.3331 76.1259 22.9098 81.3524 29.8116C84.3731 31.0048 86.8265 31.9266 89.2811 31.9306C140.409 32.0142 191.538 32.0104 242.666 31.9447C245.184 31.9415 247.7 31.2194 250.218 30.8321C252.57 32.2372 255.386 33.1297 257.206 35.1237C289.427 70.4334 321.528 105.875 353.642 141.304C354.333 142.068 354.86 143.013 355.434 144.753C355.251 147.362 354.964 149.09 354.964 150.818C354.967 208.806 354.996 266.794 355.022 324.782C340.245 341.455 325.552 358.223 310.573 374.674C308.863 376.551 305.3 377.858 303.03 377.298C299.657 376.467 295.607 374.482 293.899 371.542C292.792 369.638 294.481 364.284 296.403 361.972C308.169 347.816 320.414 334.145 332.348 320.156C334.147 318.047 335.152 315.118 336.869 312.364C337.515 312.097 338.044 312.099 338.075 311.964C338.216 311.339 338.263 310.677 338.263 310.029C338.264 260.804 338.279 211.579 338.173 162.354C338.169 160.406 337.006 158.461 336.384 156.514C320.824 138.813 305.324 121.046 289.686 103.429C275.71 87.6844 261.665 72.0109 247.418 56.5665C245.57 54.5627 242.332 53.1081 239.731 53.0961C189.573 52.8629 139.414 52.8998 89.2546 52.8158C85.7681 52.81 82.7633 53.182 82.4139 57.9222C81.6133 68.785 75.0939 75.3772 68.0122 81.6047C63.6809 85.4136 59.34 89.2205 55.1886 93.2589C53.99 94.425 53.4335 96.3907 52.5827 97.9898C54.238 98.862 55.8621 100.396 57.5538 100.492C65.0716 100.92 72.6085 101.059 80.139 101.08C130.098 101.217 180.057 101.322 230.017 101.368C237.311 101.375 243.056 103.993 248.285 110.051C268.756 133.766 289.653 157.034 310.308 181.375C310.073 183.355 309.792 184.428 309.791 185.501C309.75 222.105 309.725 258.709 309.757 295.313C309.758 297.009 310.305 298.705 310.598 300.401ZM57.5096 561.064C57.5096 561.064 57.3278 561 57.8032 560.367C58.0959 559.921 58.3886 559.475 58.6224 558.698C58.6224 558.698 58.6967 558.371 59.1981 557.43C59.439 555.074 59.8887 552.719 59.8904 550.362C59.9315 491.199 59.9362 432.035 59.8885 372.871C59.8866 370.532 59.3077 368.194 59.1075 365.163C59.7917 364.67 60.4759 364.176 62.0635 364.068C63.0391 364.229 64.0145 364.531 64.9901 364.531C102.02 364.558 139.05 364.572 176.08 364.516C177.815 364.514 179.55 363.865 182.077 363.621C184.23 366.652 186.831 369.416 188.468 372.754C217.406 431.781 246.507 490.716 274.814 550.11C279.851 560.68 285.393 565.625 296.102 563.74C300.999 562.878 306.071 563.216 312.182 562.963C310.407 558.8 309.434 556.219 308.242 553.767C279.78 495.194 251.309 436.624 222.796 378.081C218.151 368.545 218.164 367.063 224.376 358.943C225.651 357.278 227.044 355.718 228.433 354.165C246.789 333.659 265.25 313.265 283.392 292.532C285.56 290.055 287.051 285.763 287.084 282.291C287.355 254.145 287.345 225.993 287.004 197.848C286.96 194.185 285.395 189.636 283.092 187.058C265.186 167.009 246.925 147.342 228.34 126.691C226.509 126.139 224.679 125.106 222.847 125.104C162.076 125.018 101.305 124.999 40.5346 125.155C38.2868 125.161 36.0429 127.019 33.4749 128.083C33.4749 128.083 33.4097 127.729 32.736 128.183C32.3391 128.56 31.9421 128.937 31.4018 129.815C31.2444 130.143 31.0053 130.364 29.9154 130.878C29.2392 133.213 28.563 135.548 27.3772 138.836C27.115 141.197 26.6239 143.557 26.6232 145.918C26.5829 280.987 26.5734 416.056 26.6603 551.125C26.6619 553.504 27.8711 555.881 28.8538 559.221C30.2254 560.62 31.5936 563.214 32.9692 563.218C40.5319 563.245 48.0964 562.638 56.2917 561.774C56.7176 561.471 57.1434 561.168 57.5096 561.064ZM454.644 325.379C454.644 325.379 454.764 325.388 454.817 324.15C454.8 270.009 454.783 215.868 455.894 161.701C458.468 161.669 461.042 161.609 463.615 161.609C508.168 161.606 552.72 161.678 597.272 161.471C600.505 161.456 603.73 159.424 607.589 157.659C608.232 150.912 609.209 144.179 609.432 137.415C609.704 129.17 607.897 127.224 600.541 127.22C545.348 127.186 490.155 127.159 434.963 127.444C431.85 127.46 428.75 130.244 424.993 132.525C424.639 134.842 423.975 137.158 423.974 139.475C423.924 274.817 423.92 410.158 423.995 545.499C423.997 547.956 425.011 550.411 425.892 553.525C426.487 554.562 427.082 555.599 428.319 557.331C431.738 558.114 435.156 559.57 438.578 559.579C491.11 559.717 543.642 559.691 596.175 559.585C598.619 559.58 601.061 558.474 604.213 557.437C608.378 556.603 610.25 553.559 610.32 549.198C610.411 543.582 610.508 537.929 610.007 532.358C609.804 530.099 608.031 528.011 606.171 525.284C603.833 525.005 601.495 524.489 599.156 524.484C554.161 524.387 509.167 524.35 464.173 524.299C454.913 524.289 454.904 524.284 454.898 514.265C454.863 462.561 454.833 410.858 454.796 359.248C454.796 359.248 454.711 359.241 455.848 359.293C493.436 359.302 531.024 359.34 568.612 359.253C571.071 359.247 573.529 358.276 576.663 357.156C582.106 353.259 583.03 331.774 577.932 327.516C577.62 327.256 577.244 327.09 576.839 326.195C576.144 325.897 575.449 325.339 574.754 325.339C534.714 325.367 494.675 325.442 454.644 325.379ZM45.5878 70.615C47.2942 70.0808 49.0918 69.7691 50.6917 68.9749C58.5535 65.0721 63.3156 58.3811 63.6837 48.866C64.0603 39.1313 59.6891 31.758 52.2195 26.81C45.2842 22.2158 38.2053 22.7817 31.5188 27.531C23.5539 33.1883 19.8491 43.9434 22.4364 53.0372C25.6518 64.3388 33.472 70.5866 45.5878 70.615ZM558.67 705.362C558.742 716.322 568.783 724.373 577.606 723.077C587.63 721.604 594.232 712.481 593.23 701.594C592.28 691.276 583.817 683.368 574.47 684.065C566.023 684.694 559.916 692.514 558.67 705.362ZM587.493 124.932C536.279 124.932 485.064 124.932 433.849 124.932C433.851 125.24 433.853 125.548 433.854 125.857C489.971 125.857 546.087 125.857 602.203 125.857C602.208 125.549 602.213 125.24 602.218 124.932C597.703 124.932 593.187 124.932 587.493 124.932Z" fill="#199AE7"/>
<path d="M98 673.17C98.3645 672.729 98.764 672.297 99.9365 671.459C105.044 670.705 109.378 670.056 113.713 670.054C249.475 669.997 385.237 670.004 520.999 670C521.004 670.625 521.01 671.25 520.46 672.369C517.922 672.876 515.94 672.9 513.958 672.9C376.986 672.916 240.014 672.931 102.854 673.1C102.419 673.469 102.189 673.707 101.974 673.968C101.402 674.011 100.829 674.053 99.6281 673.791C98.6976 673.321 98.385 673.193 98.0621 673.1C98.0621 673.1 98.0349 673.18 98 673.17Z" fill="#199AE7"/>
<path d="M639.84 158C639.362 155.805 638.785 153.025 638.768 150.24C638.677 134.978 638.599 119.713 638.79 104.453C638.855 99.2806 637.47 96.9953 632.385 97.0056C554.583 97.1635 476.78 97.1702 398.406 96.8681C397.907 96.0433 397.979 95.5623 398.051 95.0814C458.247 95.0552 518.442 95.0267 578.638 95.0038C598.88 94.9961 619.122 95.0026 640 95.0026C640 116.137 640 136.775 639.84 158Z" fill="#199AE7"/>
<path d="M622 501.999C618.422 502.024 614.699 501.306 610.972 501.283C592.169 501.164 573.364 501.321 554.561 501.145C550.902 501.11 547.261 499.935 543.59 499.48C542.098 499.296 540.531 499.507 539.031 499.759C536.724 500.147 534.448 501.133 532.153 501.155C518.224 501.289 504.292 501.188 490.362 501.247C486.991 501.261 483.918 501.046 483 496.123C486.635 495.821 490.389 496.17 494.142 496.172C533.818 496.193 573.494 496.046 613.168 496.375C616.075 496.399 618.959 499.765 622 501.999Z" fill="#199AE7"/>
<path d="M397.76 96C398.066 96.296 398.009 96.7765 397.964 97.6261C397.977 98.9412 397.979 99.8873 397.975 101.915C397.95 204.115 397.914 305.233 397.916 406.351C397.918 466.716 397.98 527.081 397.95 587.836C397.834 588.484 397.784 588.742 397.734 589C397.487 586.695 397.026 584.39 397.026 582.084C396.992 421.821 396.995 261.558 397.013 101.295C397.014 99.5914 397.263 97.8879 397.76 96Z" fill="#199AE7"/>
<path d="M103 672.101C239.954 672.087 376.907 672.073 513.861 672.058C515.843 672.058 517.825 672.036 520.365 672C521.216 672.33 521.509 672.685 522 673.325C518.971 673.759 515.742 673.907 511.584 673.855C508.676 673.577 506.698 673.43 504.72 673.431C395.338 673.431 285.956 673.42 176.574 673.474C153.994 673.485 131.415 673.741 108.835 673.885C107.022 674.02 105.21 674.156 103.213 673.541C103.02 672.561 103.01 672.331 103 672.101Z" fill="#199AE7"/>
<path d="M521 653C519.28 653.308 517.017 653.955 514.754 653.956C380.75 654.007 246.746 654.007 112.743 653.989C111.211 653.989 109.679 653.695 108 653.336C240.633 653.128 373.412 653.125 506.191 653.117C510.946 653.117 515.702 653.065 521 653Z" fill="#199AE7"/>
<path d="M263 583.861C268.446 587.869 274.828 587.403 281.206 587.376C301.952 587.285 322.699 587.354 343.445 587.324C345.758 587.321 348.07 587.079 350.774 586.925C349.782 583.265 349.003 580.388 348.231 577C350.352 580.451 352.465 584.413 355 589.166C352.682 589.479 351.223 589.846 349.764 589.849C324.22 589.897 298.676 589.811 273.133 589.999C268.682 590.032 265.377 588.624 263 583.861Z" fill="#199AE7"/>
<path d="M250 30.6496C248.017 31.222 245.501 31.9475 242.984 31.9508C191.863 32.0168 140.742 32.0206 89.6216 31.9365C87.1674 31.9325 84.7144 31.0063 82 30.1214C135.479 29.8864 189.22 30.0364 242.96 30.2031C245.129 30.2098 247.297 30.3751 250 30.6496Z" fill="#199AE7"/>
<path d="M398 589.248C398.058 588.874 398.121 588.546 398.557 587.667C398.93 587.116 399.51 587 399.51 587C455.578 587.048 511.646 587.08 567.714 587.191C570.446 587.196 573.178 587.89 576 588.64C575.51 589.333 574.931 589.649 574.351 589.965C573.849 590.01 573.346 590.055 572.019 589.799C569.814 589.327 568.434 589.007 567.054 589.007C514.696 588.991 462.338 588.997 409.98 589.056C408.426 589.058 406.873 589.665 405.32 589.989C404.818 590.009 404.317 590.028 403.065 589.728C400.9 589.36 399.485 589.313 398.07 589.265C398.07 589.265 398.006 589.294 398 589.248Z" fill="#199AE7"/>
<path d="M406 589.811C407.002 589.456 408.547 589.04 410.093 589.039C462.207 588.998 514.32 588.994 566.434 589.005C567.807 589.005 569.181 589.225 571 589.524C567.516 589.808 563.586 590 559.656 590C508.619 589.997 457.582 589.967 406 589.811Z" fill="#199AE7"/>
<path d="M355.633 324C355.046 266.518 355.003 208.594 355 150.671C355 148.944 355.406 147.218 355.884 145C356.391 149.473 356.844 154.438 356.854 159.403C356.956 211.547 356.999 263.69 357 315.834C357 318.408 356.468 320.983 355.633 324Z" fill="#199AE7"/>
<path d="M483 495C482.04 490.065 480.044 484.534 480.008 478.991C479.911 464.214 480.766 449.433 481.015 434.651C481.11 429.015 480.228 423.359 480.422 417.731C480.737 408.582 481.57 399.449 482.561 390C482.911 424.593 482.885 459.496 483 495Z" fill="#199AE7"/>
<path d="M337 157C337.326 158.384 337.949 160.329 337.951 162.278C338.008 211.507 338 260.737 337.999 309.967C337.999 310.616 337.974 311.278 337.898 311.902C337.882 312.037 337.598 312.036 337.355 311.875C337.244 288.84 337.217 266.027 337.296 241.991C337.378 236.812 337.355 232.856 337.331 228.9C337.251 208.148 337.173 187.396 337.089 166.644C337.076 163.617 337.035 160.59 337 157Z" fill="#199AE7"/>
<path d="M608.761 189C605.989 188.705 603.659 188.271 601.328 188.269C565.318 188.236 529.308 188.259 493.297 188.269C491.557 188.27 489.816 188.269 488 187.301C489.554 187.2 491.109 187.011 492.663 187.01C530.838 186.996 569.013 186.99 607.188 187.038C609.318 187.04 611.448 187.519 614 188.052C612.682 188.571 610.942 188.816 608.761 189Z" fill="#199AE7"/>
<path d="M605 297C603.796 297.696 602.215 298.918 600.631 298.922C564.024 299.027 527.416 299 490.809 298.988C490.22 298.987 489.622 298.91 489.054 298.752C488.957 298.725 488.989 298.101 489.172 297.578C490.004 297.348 490.624 297.292 492.139 297.472C527.615 297.659 562.196 297.609 596.777 297.558C596.972 297.27 597.223 297.173 598.307 297.429C599.481 297.57 599.881 297.549 600.28 297.527C600.52 297.274 600.799 297.187 601.594 297.425C602.443 297.602 602.799 297.522 603.138 297.345C603.633 297.216 604.127 297.088 605 297Z" fill="#199AE7"/>
<path d="M310.738 300C310.399 298.892 310.011 297.196 310.01 295.5C309.988 258.904 310.006 222.309 310.034 185.713C310.035 184.64 310.235 183.568 310.473 182C310.742 186.479 311.002 191.452 311 196.426C310.987 230.755 310.92 265.084 310.738 300Z" fill="#199AE7"/>
<path d="M596 297.514C561.878 297.946 527.246 298.028 492 297.993C503.468 297.577 515.55 297.074 527.632 297.024C550.251 296.932 572.871 297.103 596 297.514Z" fill="#199AE7"/>
<path d="M486 386.007C517.627 386.003 549.253 385.991 580.88 386.013C583.434 386.014 585.989 386.249 589 386.507C569.057 386.753 548.657 386.89 528.256 386.974C514.585 387.03 500.913 387.011 486.649 386.768C486.038 386.343 486.019 386.175 486 386.007Z" fill="#199AE7"/>
<path d="M0.00365136 208C0.736869 208.834 2.0292 210.297 1.9995 211.723C1.59833 230.993 1.01338 250.258 0.268079 270C0.0242641 249.854 -0.0137592 229.233 0.00365136 208Z" fill="#199AE7"/>
<path d="M91 392.938C92.1177 392.257 93.7786 391.094 95.4429 391.085C117.519 390.965 139.596 390.985 161.672 391.064C162.989 391.068 164.305 391.865 166 392.699C141.434 393.067 116.49 393.03 91 392.938Z" fill="#199AE7"/>
<path d="M639.31 590C638.969 569.495 638.975 548.868 639.025 528.242C639.031 525.657 639.262 523.073 639.532 520C639.791 537.12 639.943 554.729 639.999 572.339C640.017 578.184 639.788 584.032 639.31 590Z" fill="#199AE7"/>
<path d="M303 482C301.009 479.615 298.537 477.002 297.006 473.862C293.112 465.87 289.639 457.643 286 449C291.652 459.504 297.3 470.518 303 482Z" fill="#199AE7"/>
<path d="M277 428C274.935 425.624 272.36 423.029 270.769 419.893C267.568 413.584 264.904 406.981 262 400C266.967 408.846 271.951 418.191 277 428Z" fill="#199AE7"/>
<path d="M0.0041054 145C0.757962 148.24 2.02443 152.105 1.99964 155.962C1.95773 162.498 1.10056 169.029 0.332501 176C0.0313087 166.166 -0.0163065 155.894 0.0041054 145Z" fill="#199AE7"/>
<path d="M0.0105792 401C4.72754 410.456 3.04883 420.626 0.52202 431C0.018151 421.33 -0.0282224 411.464 0.0105792 401Z" fill="#199AE7"/>
<path d="M286 448C283.022 442.157 280.011 435.836 277 429C279.989 434.831 282.978 441.177 286 448Z" fill="#199AE7"/>
<path d="M0.00200501 501.196C0.390198 500.815 1.00088 501.064 0.999999 501.311C0.970941 509.458 0.883365 517.605 0.445039 526C0.0369469 518.107 -0.0118615 509.966 0.00200501 501.196Z" fill="#199AE7"/>
<path d="M313 503C309.736 497.154 306.371 490.847 303 484C306.296 489.819 309.597 496.18 313 503Z" fill="#199AE7"/>
<path d="M0 543C0.823183 547.776 1.56001 553.149 2 559C1.10666 554.185 0.510098 548.891 0 543Z" fill="#199AE7"/>
<path d="M0.00380253 376C0.748871 377.015 2.06613 378.677 1.99741 380.266C1.7767 385.369 1.04385 390.445 0.290356 396C0.0286188 389.851 -0.0149196 383.232 0.00380253 376Z" fill="#199AE7"/>
<path d="M346 571C343.706 567.123 341.355 562.802 339 558C341.311 561.865 343.627 566.21 346 571Z" fill="#199AE7"/>
<path d="M260 394C257.671 390.457 255.293 386.467 253 382C255.374 385.533 257.663 389.543 260 394Z" fill="#199AE7"/>
<path d="M295 320C297.617 316.832 300.59 313.468 304 310C301.41 313.198 298.383 316.501 295 320Z" fill="#199AE7"/>
<path d="M2 125C1.95014 129.024 1.61983 133.381 1 138C1.04679 133.953 1.38315 129.643 2 125Z" fill="#199AE7"/>
<path d="M253 381C249.995 378.701 247.252 375.743 250.392 370C251.436 373.388 252.162 376.952 253 381Z" fill="#199AE7"/>
<path d="M0.00418629 187C4.31552 189.569 3.50088 193.099 0.538549 197C0.0319954 194.033 -0.0179226 190.817 0.00418629 187Z" fill="#199AE7"/>
<path d="M332 542C330.399 539.45 328.706 536.459 327 533C328.627 535.541 330.268 538.55 332 542Z" fill="#199AE7"/>
<path d="M337 552C335.409 549.442 333.691 546.459 332 543C333.642 545.541 335.257 548.558 337 552Z" fill="#199AE7"/>
<path d="M322 521C320.377 518.78 318.696 516.124 317 513C318.637 515.21 320.29 517.887 322 521Z" fill="#199AE7"/>
<path d="M255 568C256.619 570.496 258.298 573.483 260 577C258.369 574.517 256.715 571.504 255 568Z" fill="#199AE7"/>
<path d="M0.0158039 313C0.698824 316.463 1.17879 320.515 0.936209 325C0.0800332 321.485 -0.0536098 317.537 0.0158039 313Z" fill="#199AE7"/>
<path d="M0.0114035 287C0.691246 290.795 1.16848 295.172 0.943825 300C0.0974332 296.162 -0.0469475 291.872 0.0114035 287Z" fill="#199AE7"/>
<path d="M0.00581005 464C0.663873 467.21 1.18101 471.006 0.939619 475C0.0756645 471.661 -0.0296841 468.123 0.00581005 464Z" fill="#199AE7"/>
<path d="M0.0132831 481C0.694671 483.832 1.17319 487.21 0.94042 491C0.0895223 488.124 -0.049972 484.834 0.0132831 481Z" fill="#199AE7"/>
<path d="M260 577C260.962 578.53 261.975 580.514 263 583C262.025 581.486 261.038 579.47 260 577Z" fill="#199AE7"/>
<path d="M0.0118173 344C0.694319 346.773 1.16608 350.158 0.944909 354C0.101831 351.176 -0.0485488 347.893 0.0118173 344Z" fill="#199AE7"/>
<path d="M253 563C253.642 563.919 254.32 565.239 255 567C254.347 566.094 253.691 564.747 253 563Z" fill="#199AE7"/>
<path d="M292 324C292.412 323.13 293.047 322.081 294 321C293.619 321.919 292.922 322.87 292 324Z" fill="#199AE7"/>
<path d="M327 532C326.038 531.078 325.023 529.758 324 528C324.977 528.909 325.962 530.255 327 532Z" fill="#199AE7"/>
<path d="M0.0100968 439C0.675674 439.66 1.18659 440.765 0.934463 442C0.0659995 441.235 -0.0393275 440.34 0.0100968 439Z" fill="#199AE7"/>
<path d="M348 576C347.369 575.072 346.686 573.753 346 572C346.647 572.914 347.298 574.261 348 576Z" fill="#199AE7"/>
<path d="M262 400C261.363 398.835 260.69 397.174 260 395C260.643 396.159 261.303 397.832 262 400Z" fill="#199AE7"/>
<path d="M317 512C316.362 511.067 315.688 509.739 315 508C315.646 508.927 316.305 510.266 317 512Z" fill="#199AE7"/>
<path d="M315 507C314.342 506.379 313.65 505.391 313 504C313.684 504.609 314.324 505.621 315 507Z" fill="#199AE7"/>
<path d="M339 557C338.345 556.165 337.638 554.852 337 553C337.696 553.814 338.321 555.169 339 557Z" fill="#199AE7"/>
<path d="M398 589.51C399.019 588.789 400.335 588.879 402 589.489C400.999 590.113 399.648 590.217 398 589.51Z" fill="#199AE7"/>
<path d="M4 123C3.94446 123.518 3.61179 124.235 3 125C3.05492 124.431 3.38889 123.816 4 123Z" fill="#199AE7"/>
<path d="M251 560C251.592 560.366 252.305 561.035 253 562C252.362 561.631 251.742 560.967 251 560Z" fill="#199AE7"/>
<path d="M485.592 386C485.924 386.073 485.942 386.27 486 386.761C485.469 387.351 484.898 387.647 484 388C484.209 387.413 484.744 386.769 485.592 386Z" fill="#199AE7"/>
<path d="M0.0184345 329C0.709867 329.911 1.17428 331.299 0.937555 333C0.088213 332.034 -0.0601199 330.755 0.0184345 329Z" fill="#199AE7"/>
<path d="M324 527C323.368 526.149 322.705 524.822 322 523C322.628 523.845 323.299 525.184 324 527Z" fill="#199AE7"/>
<path d="M265 353C265.284 352.478 265.928 351.794 267 351C266.739 351.54 266.049 352.188 265 353Z" fill="#199AE7"/>
<path d="M574 589.863C574.318 589.444 574.959 589.224 575.953 589C576.101 589.6 575.897 590.203 575.407 591C574.855 590.816 574.589 590.438 574 589.863Z" fill="#199AE7"/>
<path d="M286 331C286.309 330.485 286.949 329.792 288 329C287.717 329.542 287.024 330.181 286 331Z" fill="#199AE7"/>
<path d="M252 369C252.292 368.207 252.949 367.193 254 366C253.718 366.807 253.041 367.793 252 369Z" fill="#199AE7"/>
<path d="M284 333C284.083 332.518 284.415 331.857 285 331C284.918 331.477 284.584 332.148 284 333Z" fill="#199AE7"/>
<path d="M282 335C282.093 334.526 282.427 333.855 283 333C282.907 333.478 282.573 334.14 282 335Z" fill="#199AE7"/>
<path d="M0.0234556 530C0.737052 530.283 1.15575 531.014 0.945704 532C0.120706 531.652 -0.0753694 531.05 0.0234556 530Z" fill="#199AE7"/>
<path d="M0.017013 365C0.719031 365.283 1.15353 366.015 0.949456 367C0.123918 366.651 -0.0633708 366.05 0.017013 365Z" fill="#199AE7"/>
<path d="M254 366C254.168 365.509 254.826 364.842 256 364C255.84 364.491 255.165 365.158 254 366Z" fill="#199AE7"/>
<path d="M272 346C272.078 345.526 272.415 344.873 273 344C272.919 344.461 272.589 345.141 272 346Z" fill="#199AE7"/>
<path d="M270 348C270.094 347.517 270.43 346.855 271 346C270.903 346.478 270.573 347.15 270 348Z" fill="#199AE7"/>
<path d="M602 297.192C601.933 297.914 601.602 298.096 601 297.956C601.025 297.084 601.361 296.757 602 297.192Z" fill="#199AE7"/>
<path d="M102.739 673C102.975 673.078 102.987 673.288 103 673.813C103.001 674.128 102.329 673.975 102.009 673.858C101.945 673.519 102.22 673.315 102.739 673Z" fill="#199AE7"/>
<path d="M0.0712809 281C1.09991 280.993 1.27463 281.381 0.592681 281.97C0.329404 282.162 -0.18942 281.387 0.0712809 281Z" fill="#199AE7"/>
<path d="M257.004 363C256.956 362.66 257.31 362.026 257.998 361C258.025 361.307 257.715 362.007 257.004 363Z" fill="#199AE7"/>
<path d="M269.004 349C268.955 348.815 269.322 348.51 270 348C270.014 348.156 269.717 348.518 269.004 349Z" fill="#199AE7"/>
<path d="M264.001 355C263.98 354.603 264.336 353.992 265 353C264.998 353.341 264.688 354.064 264.001 355Z" fill="#199AE7"/>
<path d="M263.007 356C262.945 355.817 263.318 355.513 263.999 355C264.019 355.153 263.729 355.517 263.007 356Z" fill="#199AE7"/>
<path d="M262.006 357C261.949 356.821 262.314 356.512 262.999 356C263.022 356.154 262.725 356.513 262.006 357Z" fill="#199AE7"/>
<path d="M260.004 359C259.957 358.639 260.32 358.022 260.999 357C261.016 357.312 260.714 358.028 260.004 359Z" fill="#199AE7"/>
<path d="M259.006 360C258.949 359.827 259.31 359.515 259.998 359C260.025 359.152 259.725 359.507 259.006 360Z" fill="#199AE7"/>
<path d="M258.004 361C257.959 360.824 258.315 360.51 258.999 360C259.02 360.157 258.712 360.509 258.004 361Z" fill="#199AE7"/>
<path d="M256.005 364C255.952 363.831 256.295 363.507 256.997 363C257.037 363.159 256.719 363.502 256.005 364Z" fill="#199AE7"/>
<path d="M281.006 336C280.949 335.833 281.305 335.517 281.998 335C282.029 335.15 281.724 335.5 281.006 336Z" fill="#199AE7"/>
<path d="M290.004 326C289.959 325.818 290.322 325.51 291 325C291.013 325.156 290.713 325.516 290.004 326Z" fill="#199AE7"/>
<path d="M289.005 327C288.951 326.821 289.316 326.513 289.999 326C290.02 326.154 289.722 326.513 289.005 327Z" fill="#199AE7"/>
<path d="M288.004 329C287.956 328.647 288.319 328.028 288.999 327C289.017 327.305 288.716 328.019 288.004 329Z" fill="#199AE7"/>
<path d="M627 506.967C626.805 507.123 626.513 506.716 626 506.011C626.153 505.943 626.528 506.173 627 506.967Z" fill="#199AE7"/>
<path d="M626 505.998C625.633 506.031 625.026 505.665 624 505C624.308 505 625.034 505.3 626 505.998Z" fill="#199AE7"/>
<path d="M624 504.999C623.81 505.021 623.505 504.66 623 504C623.162 504.006 623.523 504.312 624 504.999Z" fill="#199AE7"/>
<path d="M278.004 339C277.955 338.821 278.317 338.512 278.999 338C279.018 338.155 278.717 338.512 278.004 339Z" fill="#199AE7"/>
<path d="M277.003 340C276.962 339.811 277.326 339.507 278 339C278.009 339.16 277.709 339.522 277.003 340Z" fill="#199AE7"/>
<path d="M276.005 342C275.953 341.625 276.321 341.017 276.999 340C277.015 340.317 276.72 341.042 276.005 342Z" fill="#199AE7"/>
<path d="M275.005 343C274.953 342.812 275.319 342.507 275.999 342C276.016 342.159 275.72 342.521 275.005 343Z" fill="#199AE7"/>
<path d="M29 140.919C28.8791 201.124 28.7582 261.329 28.4137 322.328C28.3751 323.583 28.56 324.044 28.7449 324.505C28.7084 359.751 28.6719 394.996 28.3468 431.267C28.2297 434.776 28.4011 437.258 28.5726 439.74C28.5779 443.575 28.5833 447.411 28.301 452.249C28.192 455.731 28.3709 458.211 28.5498 460.692C28.56 462.813 28.5702 464.934 28.2983 468.057C28.1917 472.816 28.3673 476.572 28.5428 480.328C28.5163 488.049 28.4898 495.77 28.1883 504.651C28.0716 507.388 28.2301 508.965 28.3886 510.542C28.4208 511.361 28.4529 512.181 28.2125 514.001C28.108 517.45 28.2762 519.898 28.4443 522.348C28.6207 534.03 28.7972 545.713 28.8787 558C27.8492 556.225 26.099 553.847 26.0968 551.468C25.9709 416.376 25.9847 281.284 26.043 146.192C26.044 143.831 26.7548 141.47 27.5627 139C28.3273 139.567 28.6637 140.243 29 140.919Z" fill="#199AE7"/>
<path d="M399 586.265C399.015 586.865 398.557 586.957 398.328 587C398.064 526.68 398.002 466.317 398 405.954C397.997 304.838 398.033 203.723 398.086 102C398.397 105.252 398.919 109.112 398.92 112.972C398.971 270.536 398.974 428.1 399 586.265Z" fill="#199AE7"/>
<path d="M520 669.806C384.6 670.07 249.02 670.066 113.44 670.111C109.112 670.113 104.783 670.634 100 671C101.637 670.388 103.728 669.079 105.821 669.078C242.474 668.983 379.127 668.992 515.781 669.017C517.127 669.017 518.474 669.361 520 669.806Z" fill="#199AE7"/>
<path d="M229 127.12C222.899 127.466 216.58 127.307 210.26 127.286C154.821 127.102 99.3822 126.923 43.943 126.829C40.8162 126.824 37.6883 127.575 34 128C35.6941 127.014 37.9473 125.124 40.2044 125.119C101.225 124.96 162.246 124.979 223.267 125.067C225.106 125.069 226.944 126.119 229 127.12Z" fill="#199AE7"/>
<path d="M425.605 132C425.874 176.396 425.698 221.185 425.668 265.975C425.611 352.5 425.621 439.025 425.649 525.55C425.652 534.505 425.957 543.46 426 553C425.249 551.125 424.069 548.664 424.067 546.203C423.98 410.588 423.984 274.973 424.043 139.357C424.044 137.036 424.815 134.715 425.605 132Z" fill="#199AE7"/>
<path d="M607 525.567C601.275 525.733 595.15 525.505 589.025 525.524C545.098 525.659 501.171 525.846 457.245 526C456.473 526.003 455.701 525.801 454.488 525.634C454.322 523.959 454.014 522.304 454.013 520.649C453.992 469.165 453.996 417.682 454.027 366.199C454.028 364.265 454.341 362.332 454.877 360C455.277 411.167 455.306 462.732 455.341 514.297C455.348 524.289 455.357 524.294 464.615 524.304C509.605 524.356 554.595 524.392 599.584 524.489C601.923 524.494 604.261 525.009 607 525.567Z" fill="#199AE7"/>
<path d="M454 161.926C456.515 161.144 459.029 159.685 461.546 159.681C506.889 159.609 552.232 159.725 597.575 159.753C600.541 159.754 603.507 159.365 607 159C604.285 159.872 601.046 161.784 597.799 161.798C553.052 161.993 508.305 161.925 463.558 161.928C460.973 161.928 458.388 161.985 455.069 162C454.336 161.985 454 161.926 454 161.926Z" fill="#199AE7"/>
<path d="M428 557C432.799 557.161 437.918 558.173 443.039 558.188C492.807 558.341 542.576 558.335 592.345 558.339C595.712 558.339 599.079 558.056 603 557.953C601.11 558.662 598.667 559.895 596.222 559.901C543.676 560.019 491.129 560.049 438.583 559.895C435.161 559.885 431.741 558.261 428 557Z" fill="#199AE7"/>
<path d="M57.0543 560C57.0278 498.113 56.9951 436.225 57.0006 374.338C57.0008 372.171 57.382 370.004 58.1849 368C58.856 431.665 58.928 495.166 59 558.668C59 558.668 58.8704 558.996 58.4357 559.324C57.6854 559.769 57.3699 559.884 57.0543 560Z" fill="#199AE7"/>
<path d="M58.6228 558C58.2106 495.011 58.1523 431.551 58.0144 367.464C57.9347 366.837 58.2009 366.247 58.4473 366C59.1315 368.094 59.949 370.435 59.9517 372.776C60.019 432.002 60.0123 491.228 59.9543 550.454C59.952 552.813 59.317 555.171 58.6228 558Z" fill="#199AE7"/>
<path d="M588.812 125C593.935 125.001 598.468 125.001 603 125.001C602.995 125.334 602.99 125.667 602.985 126C546.659 126 490.332 126 434.005 126C434.004 125.667 434.002 125.333 434 125C485.407 125 536.814 125 588.812 125Z" fill="#199AE7"/>
<path d="M456 358.979C456.98 358.629 458.528 358 460.076 358C498.539 358.009 537.002 358.085 576 358.15C574.08 358.436 571.626 358.967 569.17 358.971C531.636 359.019 494.102 358.998 456 358.979Z" fill="#199AE7"/>
<path d="M577 326.334C537.206 326.82 497.383 326.929 457.56 327C456.799 327.001 456.038 326.556 455 325.755C494.777 325.114 534.83 325.031 574.884 325C575.579 324.999 576.275 325.621 577 326.334Z" fill="#199AE7"/>
<path d="M61 364.248C61.9045 363.776 63.2633 363.295 64.6234 363.291C101.849 363.158 139.074 363.069 176.299 363C177.685 362.997 179.07 363.272 181 363.634C179.797 364.236 178.049 364.955 176.301 364.958C139.002 365.019 101.702 365.004 64.4029 364.974C63.4202 364.973 62.4376 364.64 61 364.248Z" fill="#199AE7"/>
<path d="M28.7326 140C28.4266 139.841 28.2306 139.197 28 138.205C28.5354 135.633 29.1056 133.412 30 131C29.8304 133.712 29.3365 136.614 28.7326 140Z" fill="#199AE7"/>
<path d="M57.0854 560.091C57.3637 559.52 57.5434 559.368 58 559C57.986 559.374 57.6951 559.964 57.168 560.972C56.9502 561.097 56.9685 560.803 57.0854 560.091Z" fill="#199AE7"/>
<path d="M56 562C56.0504 561.842 56.3632 561.461 57 561C56.9702 561.206 56.6163 561.491 56 562Z" fill="#199AE7"/>
<path d="M33 128C32.974 128.163 32.6539 128.516 32 129C32.0127 128.817 32.3593 128.503 33 128Z" fill="#199AE7"/>
<path d="M246.443 289.789C236.063 301.454 225.683 313.119 214.63 325.17C213.323 326.372 212.687 327.186 212.051 328.001C212.051 328.001 212.061 327.874 211.629 327.957C204.714 328.791 198.234 330.159 191.748 330.191C150.729 330.392 109.708 330.281 68.6878 330.329C65.5344 330.333 62.3814 330.766 59.2283 331C59.2283 331 58.898 331.004 59.032 330.203C59.2859 326.373 59.5087 323.344 59.5103 320.314C59.5356 271.716 59.52 223.118 59.5452 174.52C59.5513 162.839 60.3658 161.951 71.0667 162.002C119.76 162.233 168.453 162.501 217.147 162.756C217.147 162.756 217.067 162.84 217.217 163.098C217.719 163.64 218.071 163.923 218.423 164.206C218.423 164.206 218.28 164.199 218.394 164.546C219.672 165.949 220.836 167.005 222 168.061C222 168.061 221.888 168.07 222.001 168.401C222.882 169.331 223.649 169.93 224.417 170.529C224.417 170.529 224.335 170.602 224.47 170.82C224.848 171.382 225.163 171.599 225.55 171.691C225.55 171.691 225.675 171.694 225.788 172.046C226.12 172.756 226.416 172.999 226.791 173.128C226.791 173.128 226.572 173.352 226.779 173.562C227.495 174.226 228.004 174.679 228.513 175.132C228.513 175.132 228.576 175.113 228.685 175.476C229.293 176.277 229.791 176.716 230.289 177.154C230.289 177.154 230.081 177.605 230.306 177.656C230.773 178.064 231.082 178.321 231.459 178.481C231.459 178.481 231.36 178.551 231.524 178.777C232.009 179.265 232.329 179.527 232.649 179.788C232.649 179.788 232.553 179.852 232.717 180.094C233.203 180.624 233.525 180.912 233.847 181.201C233.847 181.201 233.697 181.228 233.822 181.578C234.689 182.521 235.431 183.114 236.172 183.708C236.172 183.708 235.793 184.127 236.035 184.363C237.847 186.077 239.417 187.556 240.986 189.035C240.986 189.035 240.794 189.084 240.96 189.273C241.475 189.733 241.824 190.005 242.173 190.277C242.173 190.277 242.054 190.293 242.212 190.534C242.701 191.068 243.032 191.361 243.363 191.654C243.363 191.654 243.181 191.67 243.35 191.864C243.858 192.326 244.197 192.594 244.536 192.861C244.536 192.861 244.449 192.889 244.607 193.144C245.088 193.696 245.412 193.993 245.736 194.291C245.736 194.291 245.651 194.271 245.717 194.63C246.71 195.766 247.636 196.542 248.563 197.319C248.563 197.319 248.895 197.478 249.154 198.005C249.764 198.906 250.115 199.281 250.465 199.656C250.465 199.656 250.226 199.625 250.417 199.789C250.934 200.241 251.261 200.53 251.588 200.82C251.588 200.82 251.259 201.084 251.505 201.344C252.469 202.263 253.187 202.921 253.904 203.579C254.269 203.708 254.536 203.961 254.851 205.008C255.337 206.374 255.676 207.069 255.997 208.372C255.963 217.171 256.069 225.365 255.905 233.553C255.59 249.254 255.121 264.95 254.716 280.649C254.716 280.649 254.744 280.724 254.412 280.874C253.515 281.753 252.949 282.482 252.383 283.211C252.383 283.211 252.384 283.339 252.022 283.518C251.125 284.171 250.59 284.646 250.054 285.121C250.054 285.121 249.87 284.822 249.847 285.044C249.483 285.573 249.142 285.881 248.802 286.189C248.802 286.189 249.071 285.874 248.853 286.211C247.973 287.424 247.311 288.299 246.649 289.174C246.649 289.174 246.867 288.929 246.843 289.062C246.538 289.254 246.412 289.452 246.443 289.789ZM201.747 301.124C210.898 290.914 220.16 280.818 229.099 270.39C230.775 268.435 231.944 265.172 232.006 262.475C232.309 249.237 232.323 235.982 232.033 222.744C231.975 220.061 230.73 216.854 229.062 214.866C222.635 207.207 215.934 199.805 209.053 192.632C207.386 190.894 204.641 189.483 202.385 189.472C165.915 189.297 129.443 189.427 92.9719 189.316C88.8276 189.304 87.1133 191.409 86.8936 195.407C86.6677 199.518 86.7549 203.653 86.7634 207.777C86.8274 239.039 86.9058 270.301 87.4572 302.407C89.4623 303.005 91.4663 304.12 93.4728 304.126C127.023 304.22 160.574 304.225 194.125 304.057C196.465 304.045 198.799 302.529 201.747 301.124ZM122.048 188.159C149.1 188.159 176.152 188.159 203.204 188.159C203.201 187.845 203.197 187.53 203.194 187.216C166.08 187.216 128.967 187.216 91.8539 187.216C91.8521 187.531 91.8503 187.845 91.8485 188.16C101.518 188.16 111.188 188.16 122.048 188.159Z" fill="#199AE7"/>
<path d="M60 331.582C62.8148 330.99 65.9652 330.527 69.116 330.523C110.103 330.472 151.091 330.59 192.077 330.376C198.558 330.342 205.033 328.882 212 328C208.642 329.233 204.82 331.559 200.942 331.695C180.184 332.423 159.411 332.783 138.642 332.93C115.087 333.096 91.5305 332.93 67.9749 332.823C65.4275 332.811 62.8821 332.238 60 331.582Z" fill="#199AE7"/>
<path d="M255 281C254.988 265.458 255.486 249.679 255.821 233.896C255.996 225.665 255.883 217.428 256.138 208.605C256.375 208.017 256.815 208 256.815 208C256.899 230.875 257.013 253.749 256.999 276.624C256.998 278.003 255.985 279.382 255 281Z" fill="#199AE7"/>
<path d="M241 188C239.782 187.019 238.41 185.703 237 184C238.257 184.964 239.552 186.315 241 188Z" fill="#199AE7"/>
<path d="M249 197C248.163 196.431 247.111 195.467 246 194C246.889 194.533 247.837 195.569 249 197Z" fill="#199AE7"/>
<path d="M222 167C221.136 166.356 220.115 165.376 219 164C219.885 164.624 220.864 165.644 222 167Z" fill="#199AE7"/>
<path d="M236 183C235.447 182.721 234.754 182.078 234 181C234.579 181.255 235.22 181.945 236 183Z" fill="#199AE7"/>
<path d="M253 283C253.314 282.48 253.98 281.818 255 281C254.687 281.515 254.02 282.186 253 283Z" fill="#199AE7"/>
<path d="M247 289C247.291 288.461 247.962 287.802 249 287C248.705 287.531 248.042 288.205 247 289Z" fill="#199AE7"/>
<path d="M256.993 207.556C257.062 207.999 256.615 208.019 256.393 207.992C255.805 207.132 255.438 206.299 255 205C255.594 205.394 256.259 206.254 256.993 207.556Z" fill="#199AE7"/>
<path d="M254 203C253.447 202.697 252.761 202.045 252 201C252.572 201.289 253.22 201.97 254 203Z" fill="#199AE7"/>
<path d="M225 170C224.221 169.705 223.187 169.062 222 168C222.813 168.271 223.779 168.962 225 170Z" fill="#199AE7"/>
<path d="M213 328C213.301 327.463 213.974 326.804 215 326C214.693 326.529 214.032 327.204 213 328Z" fill="#199AE7"/>
<path d="M251 285C251.102 284.707 251.452 284.41 252 284C251.881 284.257 251.564 284.626 251 285Z" fill="#199AE7"/>
<path d="M229 174C228.494 173.914 227.826 173.583 227 173C227.507 173.084 228.173 173.419 229 174Z" fill="#199AE7"/>
<path d="M230 177C229.76 176.811 229.423 176.154 229 175C229.244 175.18 229.573 175.855 230 177Z" fill="#199AE7"/>
<path d="M252 199.997C251.814 200.037 251.493 199.694 251 199.002C251.174 198.973 251.52 199.293 252 199.997Z" fill="#199AE7"/>
<path d="M219 163.994C218.637 164.049 217.989 163.709 217 163.004C217.344 162.959 218.03 163.279 219 163.994Z" fill="#199AE7"/>
<path d="M251 199C250.81 199.006 250.488 198.663 250 198C250.179 198.004 250.523 198.327 251 199Z" fill="#199AE7"/>
<path d="M233 178.996C232.813 179.042 232.484 178.708 232 178.004C232.182 177.961 232.52 178.288 233 178.996Z" fill="#199AE7"/>
<path d="M234 180.997C233.809 181.033 233.482 180.694 233 180.002C233.185 179.973 233.525 180.298 234 180.997Z" fill="#199AE7"/>
<path d="M226 170.931C225.748 171.146 225.41 170.862 225 170.055C225.247 169.866 225.576 170.166 226 170.931Z" fill="#199AE7"/>
<path d="M246 193.998C245.806 194.032 245.482 193.691 245 193.001C245.185 192.976 245.527 193.299 246 193.998Z" fill="#199AE7"/>
<path d="M242 189.993C241.821 190.053 241.497 189.713 241 189.005C241.17 188.956 241.513 189.275 242 189.993Z" fill="#199AE7"/>
<path d="M244 190.997C243.81 191.035 243.485 190.696 243 190.002C243.182 189.972 243.523 190.296 244 190.997Z" fill="#199AE7"/>
<path d="M227 172.953C226.719 173.125 226.377 172.824 226 172.031C226.269 171.895 226.594 172.21 227 172.953Z" fill="#199AE7"/>
<path d="M232 177.96C231.736 178.117 231.406 177.81 231 177.047C231.269 176.875 231.605 177.177 232 177.96Z" fill="#199AE7"/>
<path d="M87 302.206C89.5068 302.148 92.2531 302.676 95.0005 302.68C126.197 302.732 157.394 302.729 188.59 302.668C192.552 302.66 196.512 302.243 201 302C199.178 302.649 196.831 303.881 194.478 303.891C160.748 304.027 127.018 304.024 93.2877 303.947C91.2705 303.942 89.2559 303.036 87 302.206Z" fill="#199AE7"/>
<path d="M121.776 187.999C111.451 188 101.726 188 92 188C92.0018 187.667 92.0036 187.333 92.0054 187C129.333 187 166.661 187 203.989 187C203.993 187.333 203.996 187.666 204 187.999C176.791 187.999 149.583 187.999 121.776 187.999Z" fill="#199AE7"/>
<path d="M1277 274.433C1279.88 251.675 1294.51 236.698 1316.41 235.677C1334.4 234.839 1352.45 234.774 1370.44 235.509C1391.23 236.358 1407.04 252.665 1409.67 275.469C1409.52 277.038 1409.72 277.903 1409.91 278.769C1410 280.344 1410.08 281.92 1409.91 284.343C1409.76 285.956 1409.86 286.719 1409.96 287.483C1410.03 289.997 1410.1 292.512 1409.46 295.628C1402.65 296.244 1396.54 296.285 1390.43 296.267C1381.04 296.238 1381.1 296.21 1379.73 286.321C1379.45 284.294 1378.49 282.381 1377.85 280.416C1375.24 272.522 1370.06 268.005 1362.51 267.901C1349.78 267.726 1337 267.579 1324.3 268.499C1314.13 269.236 1309.8 274.983 1309.75 286.096C1309.62 320.448 1309.64 354.802 1309.72 389.155C1309.74 398.264 1313.42 404.027 1321.52 404.516C1336.19 405.402 1350.95 405.391 1365.63 404.648C1373.24 404.263 1377.6 398.873 1377.98 391.091C1378.47 381.265 1378.1 371.387 1378.1 360.749C1366.74 360.749 1355.84 360.749 1344.58 360.749C1344.58 349.711 1344.58 339.465 1344.58 328.937C1366.59 328.937 1388.24 328.937 1410.97 328.937C1410.97 342.07 1411.05 354.837 1410.95 367.602C1410.86 378.481 1410.98 389.391 1410.26 400.228C1408.91 420.8 1395.58 435.285 1375.75 437C1372.79 436.326 1370.84 435.803 1368.9 435.796C1351.96 435.727 1335.02 435.703 1318.08 435.801C1315.71 435.814 1313.35 436.557 1310.99 436.963C1293.19 435.151 1281.23 422.878 1277.15 400.876C1277.59 398.09 1277.95 396.419 1277.95 394.747C1277.99 356.768 1278 318.789 1277.94 280.809C1277.94 278.683 1277.33 276.558 1277 274.433Z" fill="#199AE7"/>
<path d="M1098.37 268C1097.96 267.85 1097.96 267.611 1098.05 267.019C1098.44 266.928 1098.78 267.18 1098.98 267.459C1099.07 267.58 1098.85 267.759 1098.37 268Z" fill="#199AE7"/>
<path d="M1242 248.735C1241.57 249.03 1240.75 249.138 1240.29 248.745C1226.35 236.775 1210 237.163 1193.65 237.915C1178.77 238.6 1163.9 239.517 1149.04 240.628C1145.83 240.868 1142.7 242.373 1139 243.245C1146.75 240.583 1154.94 236.295 1163.35 235.71C1180.17 234.539 1197.11 235.065 1213.99 235.534C1224.57 235.828 1234.2 239.659 1242 248.735Z" fill="#199AE7"/>
<path d="M1215 404C1211.51 405.217 1207.51 407.486 1203.39 407.667C1191.65 408.184 1179.86 408.014 1168.11 407.729C1165.46 407.665 1162.85 406.034 1160 404.741C1178 406.932 1196.23 407.107 1215 404Z" fill="#199AE7"/>
<path d="M1159 404C1158.49 403.595 1157.8 402.629 1157 401C1157.53 401.371 1158.18 402.405 1159 404Z" fill="#199AE7"/>
<path d="M1131 249C1131.03 249.381 1130.67 249.992 1130 251C1130 250.674 1130.3 249.953 1131 249Z" fill="#199AE7"/>
<path d="M1219.33 277.526C1216.06 270.414 1210.15 267.931 1203.58 267.788C1191.99 267.535 1180.36 267.444 1168.82 268.348C1164.35 268.698 1160.07 271.935 1154.98 274.442C1152.95 278.68 1150.54 282.322 1150.51 285.988C1150.22 320.52 1150.22 355.058 1150.49 389.59C1150.52 392.975 1152.91 396.336 1154.45 399.944C1155.03 400.48 1155.39 400.744 1155.77 400.972C1155.77 400.972 1155.65 400.958 1155.83 401.354C1157 402.423 1157.99 403.097 1158.98 403.771C1158.98 403.771 1159.29 403.729 1159.61 404.332C1162.53 406.026 1165.11 407.984 1167.74 408.062C1179.4 408.404 1191.09 408.608 1202.73 407.987C1206.81 407.769 1210.78 405.045 1214.81 403.465C1214.81 403.465 1214.74 403.616 1215.16 403.607C1221.41 401.837 1222.09 396.238 1222.71 391.096C1223.27 386.333 1222.9 381.431 1222.89 376.59C1222.86 357.37 1224.39 359.104 1206.92 358.916C1187.4 358.706 1190.2 362.189 1189.79 339.218C1189.69 333.156 1191.88 331.153 1197.22 331.238C1212.18 331.477 1227.14 331.289 1242.11 331.328C1250.31 331.349 1250.98 331.731 1250.58 340.801C1249.41 367.416 1254.34 394.459 1246.09 420.588C1245.89 420.496 1245.68 420.404 1245.32 420.565C1243.52 423.025 1241.88 425.232 1240.23 427.439C1240.23 427.439 1240.08 427.28 1239.73 427.444C1238.38 428.636 1237.37 429.664 1236.36 430.692C1236.36 430.692 1236.38 430.576 1235.95 430.546C1234.07 431.589 1232.62 432.662 1231.18 433.736C1231.18 433.736 1231.13 433.631 1230.62 433.537C1225.51 434.295 1220.9 435.147 1215.68 436C1196.09 435.998 1177.12 435.996 1157.61 435.974C1149.03 433.096 1140.99 430.237 1132.96 427.379C1132.96 427.379 1133.03 427.275 1132.89 426.84C1131.05 424.793 1129.35 423.181 1127.64 421.568C1127.64 421.568 1127.73 421.451 1127.61 420.989C1121.01 408.233 1120.92 394.776 1121.06 381.096C1121.34 353.968 1121.08 326.835 1121.16 299.704C1121.2 285.993 1119.53 272.001 1126.08 259.203C1126.56 258.255 1126.27 256.825 1126.33 255.619C1126.33 255.619 1126.43 255.716 1126.76 255.501C1127.62 254.31 1128.15 253.334 1128.68 252.358C1128.68 252.358 1128.82 252.559 1128.99 252.315C1129.46 251.601 1129.76 251.13 1130.06 250.659C1130.06 250.659 1130.11 251.042 1130.25 250.797C1130.75 250.129 1131.11 249.707 1131.48 249.286C1131.48 249.286 1131.53 249.666 1131.64 249.394C1132.1 248.675 1132.43 248.227 1132.76 247.779C1132.76 247.779 1132.7 248.102 1133.02 247.962C1134.91 246.396 1136.47 244.97 1138.04 243.544C1138.04 243.544 1138.02 243.648 1138.51 243.684C1142.16 242.794 1145.3 241.283 1148.51 241.042C1163.37 239.926 1178.25 239.005 1193.14 238.317C1209.5 237.562 1225.87 237.172 1239.81 249.194C1240.27 249.589 1241.09 249.48 1241.74 249.606C1241.74 249.606 1241.62 249.665 1241.69 250.134C1243.94 254.994 1247.25 259.143 1248.08 263.824C1249.82 273.63 1250.39 283.704 1251 293.701C1251.06 294.702 1248.12 296.705 1246.44 296.903C1241.71 297.461 1236.89 297.079 1232.14 297.516C1225.37 298.139 1223.46 296.042 1222.75 288.372C1222.41 284.668 1220.52 281.136 1219.33 277.526Z" fill="#199AE7"/>
<path d="M1155.06 399.313C1154.87 399.078 1155.2 399.036 1155.37 399C1155.66 399.169 1155.78 399.375 1156 399.958C1155.8 400.109 1155.51 399.846 1155.06 399.313Z" fill="#199AE7"/>
<path d="M1017.45 269.82C1016.85 270.031 1016.26 270.243 1014.91 271.042C1013.85 283.473 1013.4 295.314 1013.32 307.159C1013.29 311.424 1014.16 315.696 1014.62 319.965C1014.62 319.965 1014.55 319.97 1014.86 320.41C1017.61 321.556 1020.04 322.842 1022.49 322.875C1037.06 323.072 1051.64 322.987 1066.22 322.981C1082.41 322.975 1082.41 322.968 1082.27 340.435C1082.18 349.997 1081.65 350.627 1072.71 350.651C1055.7 350.695 1038.69 350.705 1021.68 350.633C1017.63 350.616 1014.05 351.039 1013.27 357.185C1013.26 370.959 1013.22 384.052 1013.28 397.144C1013.33 406.285 1014.49 407.495 1023 407.506C1045.07 407.534 1067.14 407.662 1089.21 407.406C1094.9 407.34 1097.4 409.378 1096.92 415.775C1096.62 419.869 1096.62 424.036 1096.94 428.129C1097.37 433.782 1095.6 435.505 1090.22 435.432C1066.69 435.11 1043.15 435.252 1019.61 435.47C1007.73 435.58 995.852 436.21 984 435.928C984.035 372.972 984.019 310.692 984.108 248.413C984.113 244.608 984.952 240.804 985.403 237C1017.73 237.024 1050.05 237.047 1082.37 237.072C1086.77 237.075 1091.17 237.083 1096.19 237.855C1096.83 245.401 1096.54 252.204 1096.95 258.956C1097.36 265.759 1094.78 267.727 1088.85 267.647C1067.69 267.363 1046.52 267.46 1025.36 267.642C1022.72 267.665 1020.09 269.06 1017.45 269.82Z" fill="#199AE7"/>
<path d="M1246.72 420C1254.63 394.204 1249.71 367.159 1250.88 340.543C1251.28 331.472 1250.61 331.09 1242.43 331.069C1227.49 331.03 1212.56 331.218 1197.63 330.979C1192.31 330.894 1190.12 332.897 1190.22 338.959C1190.63 361.932 1187.83 358.449 1207.32 358.659C1224.75 358.847 1223.22 357.113 1223.25 376.334C1223.26 381.175 1223.63 386.078 1223.07 390.841C1222.45 395.983 1221.78 401.583 1215.47 403.312C1216.95 398.445 1220.12 393.761 1220.63 388.745C1221.56 379.74 1220.89 370.536 1220.89 360.616C1209.47 360.616 1198.82 360.616 1188 360.616C1188 349.697 1188 339.601 1188 329C1209.81 329 1231.36 329 1253.72 329C1253.72 340.287 1253.72 351.34 1253.72 362.393C1253.71 373.275 1254.53 384.262 1253.41 395.003C1252.54 403.383 1249.25 411.456 1246.72 420Z" fill="#199AE7"/>
<path d="M1126.39 256C1126.7 256.935 1127 258.364 1126.51 259.311C1119.99 272.096 1121.66 286.074 1121.62 299.772C1121.54 326.876 1121.79 353.983 1121.51 381.084C1121.37 394.751 1121.46 408.195 1128 421C1121.57 413.888 1119.22 404.472 1119.18 394.369C1119.06 356.513 1118.73 318.647 1119.44 280.807C1119.6 272.582 1123.72 264.447 1126.39 256Z" fill="#199AE7"/>
<path d="M1155.47 400C1153.99 396.624 1151.26 393.258 1151.23 389.869C1150.92 355.294 1150.92 320.713 1151.25 286.138C1151.29 282.467 1154.03 278.82 1156 275C1155.49 278.247 1153.67 281.651 1153.65 285.066C1153.45 320.039 1153.49 355.015 1153.66 389.99C1153.67 392.966 1155.12 395.936 1155.93 399.434C1155.96 399.958 1155.47 400 1155.47 400Z" fill="#199AE7"/>
<path d="M1220 278.425C1221.07 281.38 1222.97 284.833 1223.31 288.456C1224.02 295.957 1225.93 298.008 1232.71 297.399C1237.48 296.971 1242.31 297.345 1247.05 296.799C1248.73 296.605 1251.68 294.647 1251.62 293.668C1251.01 283.891 1250.43 274.039 1248.69 264.449C1247.86 259.872 1244.55 255.814 1242.32 251C1249.67 257.973 1253.49 267.261 1253.88 278.085C1254.12 284.907 1253.92 291.748 1253.92 299C1243.01 299 1232.38 299 1221.99 299C1221.34 292.058 1220.73 285.53 1220 278.425Z" fill="#199AE7"/>
<path d="M1197 437.691C1202.92 437.171 1209.38 436.878 1216.31 436.353C1221.34 435.387 1225.89 434.652 1231 434C1220.7 439.326 1209.03 437.856 1197 437.691Z" fill="#199AE7"/>
<path d="M1276.55 275C1277.16 276.455 1277.95 278.577 1277.95 280.699C1278.02 318.613 1278.01 356.526 1277.96 394.44C1277.96 396.109 1277.5 397.777 1276.99 400C1276.47 397.442 1275.99 394.331 1276 391.219C1276.08 352.702 1276.23 314.184 1276.55 275Z" fill="#199AE7"/>
<path d="M1311 437.899C1312.85 437.099 1315.22 436.105 1317.6 436.087C1334.62 435.957 1351.65 435.988 1368.67 436.08C1370.63 436.091 1372.58 436.789 1375 437.564C1354.15 438.025 1332.84 438.091 1311 437.899Z" fill="#199AE7"/>
<path d="M1159 436C1177.95 436.002 1196.91 436.005 1216 436.283C1209.6 436.911 1203.07 437.263 1196.54 437.614C1196.38 438.016 1196.11 438.151 1194.91 437.742C1189.18 437.511 1184.28 437.557 1179.38 437.603C1177.11 437.752 1174.85 437.901 1171.4 437.818C1169.75 437.607 1169.27 437.627 1168.79 437.646L1168.46 438C1168.46 438 1168.01 437.996 1167.17 437.739C1164.97 437.532 1163.61 437.582 1162.25 437.632C1161.46 437.739 1160.67 437.847 1159.46 437.383C1159.03 436.541 1159.01 436.271 1159 436Z" fill="#199AE7"/>
<path d="M1158.38 435.758C1158.93 436.025 1158.95 436.273 1159 436.893C1149.68 437.627 1141.45 434.572 1134 428C1141.79 430.315 1149.82 433.027 1158.38 435.758Z" fill="#199AE7"/>
<path d="M1241 427C1242.49 424.824 1244.47 422.465 1247 420C1245.53 422.201 1243.51 424.509 1241 427Z" fill="#199AE7"/>
<path d="M1128 422C1129.84 423.203 1131.87 424.855 1134 427C1132.13 425.812 1130.16 424.13 1128 422Z" fill="#199AE7"/>
<path d="M1138 244C1137.04 245.218 1135.71 246.56 1134 248C1134.95 246.773 1136.3 245.449 1138 244Z" fill="#199AE7"/>
<path d="M1232 434C1233.15 432.727 1234.8 431.336 1237 430C1235.87 431.331 1234.18 432.607 1232 434Z" fill="#199AE7"/>
<path d="M1238 430C1238.39 429.403 1239.06 428.73 1240 428C1239.61 428.603 1238.94 429.264 1238 430Z" fill="#199AE7"/>
<path d="M1129 253C1128.77 253.798 1128.12 254.81 1127 256C1127.22 255.19 1127.9 254.202 1129 253Z" fill="#199AE7"/>
<path d="M1129.99 251C1130.07 251.34 1129.7 251.961 1129 253C1128.96 252.706 1129.25 251.994 1129.99 251Z" fill="#199AE7"/>
<path d="M1682 276.191C1686.25 255.707 1698.45 243.179 1716.76 241.441C1736.88 239.529 1757.46 239.4 1777.51 241.78C1796.76 244.065 1809.29 257.653 1812.78 280.586C1812.36 283.117 1812.02 284.542 1812.01 285.967C1811.98 321.664 1811.96 357.361 1812.01 393.058C1812.02 395.174 1812.66 397.288 1813 399.403C1810.68 419.11 1798.62 432.33 1777.73 436.64C1759.45 436.075 1742.16 435.809 1724.87 435.679C1723.19 435.667 1721.51 436.498 1719.83 436.938C1719.23 436.994 1718.62 437.049 1717.43 436.925C1716.53 436.641 1716.23 436.664 1715.93 436.817C1698.44 434.129 1686.27 421.654 1682.12 400.803C1682.56 398.038 1682.92 396.372 1682.92 394.705C1682.95 357.325 1682.96 319.944 1682.9 282.563C1682.9 280.439 1682.31 278.315 1682 276.191ZM1770.22 404.071C1777.55 401.052 1780.43 395.115 1780.4 386.653C1780.26 354.831 1780.35 323.009 1780.32 291.186C1780.3 278.18 1775.05 272.13 1763.21 271.876C1752.7 271.65 1742.18 271.653 1731.67 271.892C1719.44 272.169 1714.59 277.668 1714.57 290.989C1714.53 323.052 1714.56 355.115 1714.61 387.179C1714.63 397.326 1719.96 404.549 1729.2 404.912C1742.52 405.435 1755.88 404.752 1770.22 404.071Z" fill="#199AE7"/>
<path d="M1903.29 361.403C1895.46 346.335 1887.65 331.248 1879.75 316.221C1878.72 314.249 1877.2 312.584 1875.12 311.249C1874.01 315.53 1873.41 319.336 1873.39 323.146C1873.19 360.631 1873.08 398.117 1872.49 435.607C1870.28 436.039 1868.51 436.468 1866.75 436.896C1859.64 436.951 1852.52 437.006 1844.79 436.32C1844.17 375.342 1844.17 315.105 1844.17 254.867C1844.17 252.449 1843.66 249.804 1844.39 247.676C1845.1 245.619 1847.13 242.546 1848.52 242.587C1857.91 242.864 1867.28 243.848 1876.66 244.604C1876.66 244.604 1876.24 244.944 1876.4 245.281C1877.81 247.318 1879.05 249.017 1880.28 250.716C1880.28 250.716 1880.19 250.762 1880.25 251.209C1881.39 253.086 1882.45 254.517 1883.52 255.948C1883.52 255.948 1883.62 256.002 1883.47 256.605C1887.32 264.139 1891.32 271.069 1895.32 277.999C1895.32 277.999 1895.13 278.311 1895.16 278.682C1896.76 281.799 1898.35 284.546 1899.94 287.293C1899.94 287.293 1900.19 287.491 1900.17 288.204C1901 290.271 1901.84 291.625 1902.69 292.98C1902.69 292.98 1902.62 293.002 1902.65 293.559C1904.45 297.136 1906.23 300.156 1908.01 303.177C1908.01 303.177 1907.89 303.271 1907.94 303.769C1909.75 307.301 1911.51 310.336 1913.28 313.37C1913.28 313.37 1913.2 313.45 1913.23 313.983C1915.2 317.919 1917.15 321.324 1919.1 324.728C1919.1 324.728 1918.99 324.717 1918.92 325.216C1920.49 328.405 1922.13 331.095 1923.77 333.785C1923.77 333.785 1923.87 333.852 1923.86 334.407C1924.74 336.486 1925.64 338.009 1926.54 339.533C1926.54 339.533 1926.55 339.563 1926.55 340.135C1929.24 345.628 1931.94 350.548 1934.63 355.469C1934.63 355.469 1934.49 355.59 1934.55 356.055C1936.13 358.908 1937.66 361.295 1939.18 363.683C1939.18 363.683 1939.01 363.951 1939.05 364.201C1939.34 364.891 1939.58 365.331 1939.83 365.77C1939.83 365.77 1939.75 365.808 1939.95 366.035C1940.4 366.619 1940.68 366.954 1940.99 367.268C1940.99 367.268 1941.07 367.257 1941.22 367.397C1941.38 367.538 1941.91 367.582 1941.91 367.582L1942.41 367.358C1942.85 364.327 1943.29 361.296 1943.9 357.156C1944.35 354.153 1944.88 352.259 1944.88 350.364C1944.94 327.647 1945.04 304.929 1944.86 282.213C1944.77 271.829 1944.29 261.433 1943.57 251.076C1943.08 243.886 1945.9 241.512 1952.08 242.081C1956.03 242.445 1960.04 242.138 1964.02 242.162C1972.72 242.216 1972.99 242.49 1972.99 251.933C1973 310.305 1973.02 368.678 1972.94 427.05C1972.94 430.36 1972.07 433.668 1971.6 436.977C1963.15 437.016 1954.69 437.054 1945.35 436.655C1942.83 434.607 1941.19 432.995 1939.55 431.383C1939.55 431.383 1939.65 431.364 1939.61 430.898C1938.54 428.907 1937.51 427.381 1936.49 425.855C1936.49 425.855 1936.59 425.862 1936.58 425.377C1934.81 421.775 1933.04 418.66 1931.28 415.544C1931.28 415.544 1931.41 415.562 1931.34 415.211C1930.75 414.279 1930.22 413.699 1929.7 413.12C1929.7 413.12 1929.74 413.078 1929.68 412.667C1929.39 411.808 1929.17 411.36 1928.95 410.912C1928.95 410.912 1929.05 410.966 1929.02 410.474C1925.32 403.112 1921.66 396.243 1918 389.373C1918 389.373 1918.11 389.398 1918.12 388.956C1917.31 387.279 1916.5 386.044 1915.68 384.81C1915.68 384.81 1915.77 384.82 1915.74 384.352C1914.71 382.314 1913.71 380.744 1912.71 379.173C1912.71 379.173 1912.82 379.197 1912.83 378.759C1912.02 377.085 1911.21 375.849 1910.4 374.613C1910.4 374.613 1910.49 374.615 1910.44 374.133C1908.88 371.251 1907.35 368.851 1905.83 366.45C1905.83 366.45 1905.91 366.344 1905.85 366.025C1905.57 365.255 1905.33 364.805 1905.1 364.355C1905.1 364.355 1905.19 364.405 1905.19 364.098C1904.56 362.995 1903.93 362.199 1903.29 361.403Z" fill="#199AE7"/>
<path d="M2036.65 320.644C2056.82 321.102 2076.99 321.564 2097.16 322.011C2099.3 322.059 2101.44 322.018 2103.94 322.018C2103.94 332.41 2103.94 342.196 2103.94 354.074C2081.78 354.074 2059.93 354.074 2037.02 354.436C2035.4 355.778 2034.36 356.754 2034.35 357.742C2034.21 372.11 2034.11 386.483 2034.35 400.847C2034.37 402.309 2036.61 403.728 2037.81 405.166C2037.81 405.166 2037.92 405.067 2038.44 405.416C2040.9 406.048 2042.84 406.535 2044.79 406.583C2066.06 407.108 2087.33 407.711 2108.6 407.936C2113.93 407.992 2116.24 409.859 2115.98 415.92C2115.68 422.92 2115.93 429.947 2115.94 436.962C2079.38 437.027 2042.82 437.091 2005.65 436.397C2005.02 374.278 2005 312.918 2005 251.557C2005 242.363 2005.18 242.161 2013.52 242.151C2041.71 242.115 2069.89 241.92 2098.07 242.186C2118.81 242.382 2115.62 237.949 2115.96 263.122C2116.03 268.271 2113.84 269.844 2109.51 269.84C2090.45 269.822 2071.39 269.716 2052.35 270.25C2047.13 270.396 2041.95 272.649 2036.76 273.935C2036.76 273.935 2036.83 274.148 2036.46 274.7C2035.84 284.662 2035.37 294.073 2035.39 303.482C2035.41 309.204 2036.21 314.923 2036.65 320.644Z" fill="#199AE7"/>
<path d="M1873 435.184C1873.14 398.047 1873.25 360.911 1873.46 323.775C1873.48 320.001 1874.1 316.23 1874.77 312C1875.06 351.677 1875.02 391.812 1874.95 431.946C1874.95 433.355 1874.67 434.763 1873.85 436C1873.18 435.828 1873 435.184 1873 435.184Z" fill="#199AE7"/>
<path d="M1681.76 276C1682.29 277.463 1682.95 279.597 1682.95 281.732C1683.02 319.297 1683.01 356.861 1682.97 394.426C1682.97 396.101 1682.57 397.775 1682.12 400C1681.61 395.741 1681.12 390.933 1681.11 386.122C1681.01 352.528 1680.99 318.933 1681 285.339C1681 282.45 1681.39 279.561 1681.76 276Z" fill="#199AE7"/>
<path d="M1813.47 398C1812.86 396.56 1812.05 394.456 1812.04 392.351C1811.97 356.834 1812 321.317 1812.04 285.8C1812.05 284.382 1812.48 282.964 1812.98 281C1813.51 284.26 1814.01 288.066 1814 291.871C1813.93 327.026 1813.78 362.181 1813.47 398Z" fill="#199AE7"/>
<path d="M1721 437C1722.07 436.606 1723.76 435.991 1725.45 436C1742.81 436.096 1760.16 436.293 1778 436.662C1759.52 436.931 1740.57 437 1721 437Z" fill="#199AE7"/>
<path d="M2038 405C2037.17 403.858 2035.15 402.45 2035.13 400.999C2034.91 386.738 2035.01 372.469 2035.13 358.204C2035.14 357.224 2036.08 356.255 2037 355.045C2037.41 354.81 2037.36 355.525 2037.02 356.379C2036.81 372.256 2036.94 387.28 2037.07 402.304C2037.3 403.107 2037.52 403.91 2038 405Z" fill="#199AE7"/>
<path d="M1895 277C1891.06 270.821 1886.96 264.173 1883 257C1887.04 263.161 1890.94 269.846 1895 277Z" fill="#199AE7"/>
<path d="M2037 321C2036.63 315.868 2036.02 310.051 2036 304.232C2035.98 294.663 2036.35 285.092 2036.76 275C2036.98 289.757 2037 305.036 2037 321Z" fill="#199AE7"/>
<path d="M1917 390C1920.91 396.155 1924.95 402.811 1929 410C1925.05 403.856 1921.09 397.179 1917 390Z" fill="#199AE7"/>
<path d="M1934 355C1931.38 350.533 1928.69 345.548 1926 340C1928.64 344.452 1931.29 349.466 1934 355Z" fill="#199AE7"/>
<path d="M1919 324C1917.09 321.175 1915.04 317.864 1913 314C1914.96 316.803 1916.91 320.158 1919 324Z" fill="#199AE7"/>
<path d="M1907 303C1905.7 300.509 1904.35 297.528 1903 294C1904.32 296.472 1905.63 299.491 1907 303Z" fill="#199AE7"/>
<path d="M1913 313C1911.05 310.508 1909.02 307.527 1907 304C1908.98 306.473 1910.95 309.492 1913 313Z" fill="#199AE7"/>
<path d="M1931 416C1932.6 418.781 1934.3 422.102 1936 426C1934.37 423.231 1932.74 419.886 1931 416Z" fill="#199AE7"/>
<path d="M1900 287C1898.36 284.556 1896.66 281.573 1895 278C1896.68 280.427 1898.3 283.444 1900 287Z" fill="#199AE7"/>
<path d="M1923 334C1921.66 331.567 1920.3 328.592 1919 325C1920.37 327.408 1921.67 330.433 1923 334Z" fill="#199AE7"/>
<path d="M1939 364C1937.47 361.862 1935.74 359.23 1934 356C1935.59 358.104 1937.19 360.805 1939 364Z" fill="#199AE7"/>
<path d="M1940 431C1941.22 432.411 1942.51 434.468 1944 437C1942.82 435.532 1941.45 433.589 1940 431Z" fill="#199AE7"/>
<path d="M1906 367C1907.21 368.882 1908.59 371.19 1910 374C1908.74 372.144 1907.46 369.785 1906 367Z" fill="#199AE7"/>
<path d="M1880 251C1878.76 249.545 1877.36 247.577 1876 245C1877.3 246.423 1878.57 248.455 1880 251Z" fill="#199AE7"/>
<path d="M1926 339C1925.36 338.078 1924.69 336.756 1924 335C1924.65 335.911 1925.31 337.256 1926 339Z" fill="#199AE7"/>
<path d="M1913 379C1913.62 380.387 1914.31 382.371 1915 385C1914.36 383.629 1913.71 381.613 1913 379Z" fill="#199AE7"/>
<path d="M1936 426C1937.22 427.15 1938.6 428.798 1940 431C1938.73 429.869 1937.45 428.184 1936 426Z" fill="#199AE7"/>
<path d="M1883 256C1882.12 255.084 1881.09 253.772 1880 252C1880.91 252.895 1881.88 254.249 1883 256Z" fill="#199AE7"/>
<path d="M1872.41 436C1872.79 435.997 1872.93 436.467 1873 436.704C1871.53 436.979 1869.99 437.018 1868 436.994C1869.03 436.622 1870.53 436.313 1872.41 436Z" fill="#199AE7"/>
<path d="M1910 375C1910.96 375.829 1911.99 377.148 1913 379C1912.01 378.185 1911.04 376.837 1910 375Z" fill="#199AE7"/>
<path d="M1915 385C1915.64 385.829 1916.33 387.148 1917 389C1916.33 388.186 1915.69 386.838 1915 385Z" fill="#199AE7"/>
<path d="M1903 293C1902.03 291.964 1901.02 290.314 1900 288C1900.98 289.02 1901.97 290.703 1903 293Z" fill="#199AE7"/>
<path d="M1903 362C1903.58 362.375 1904.3 363.04 1905 364C1904.36 363.627 1903.75 362.958 1903 362Z" fill="#199AE7"/>
<path d="M1930 414C1930.25 414.122 1930.6 414.444 1931 415C1930.73 414.89 1930.42 414.545 1930 414Z" fill="#199AE7"/>
<path d="M1929 411C1929.29 411.082 1929.61 411.753 1930 413C1929.73 412.914 1929.38 412.252 1929 411Z" fill="#199AE7"/>
<path d="M1941 367C1940.8 367.015 1940.49 366.669 1940 366.021C1940.26 365.914 1940.61 366.22 1941 367Z" fill="#199AE7"/>
<path d="M1940 365C1939.75 364.985 1939.47 364.632 1939 364C1939.2 364.035 1939.58 364.349 1940 365Z" fill="#199AE7"/>
<path d="M1636 405.497C1635.19 406.256 1634.31 406.071 1633 405.503C1633.69 404.932 1634.81 404.742 1636 405.497Z" fill="#199AE7"/>
<path d="M1535.2 436.032C1539.69 435.986 1543.56 436.034 1548 436C1547.31 436.557 1546.06 437.749 1544.8 437.755C1509.44 437.919 1474.08 437.969 1438.72 438C1437.87 438.001 1437.03 437.566 1436 436.648C1446.74 436.008 1457.66 436.054 1469.2 436.047C1491.4 436.038 1512.99 436.082 1535.2 436.032Z" fill="#199AE7"/>
<path d="M1537.03 435.98C1547.58 432.802 1547.58 432.802 1547.58 419.963C1547.58 418.53 1547.45 417.083 1547.6 415.667C1548.21 409.529 1545.89 407.201 1540.08 407.28C1519.84 407.556 1499.6 407.46 1479.37 407.31C1476.68 407.29 1473.99 406.147 1471 405.099C1476.4 404.866 1482.12 405.058 1488.94 405.536C1505.35 405.702 1520.65 405.582 1535.95 405.461C1538.91 405.43 1541.86 405.399 1545.86 405.555C1547.94 405.828 1548.97 405.915 1550 406.002C1550 415.55 1549.99 425.098 1549.35 435.376C1544.82 436.063 1540.92 436.022 1537.03 435.98Z" fill="#199AE7"/>
<path d="M1438.18 237.05C1438.48 299.328 1438.45 361.481 1438.44 423.633C1438.44 434.666 1438.46 434.58 1449.13 434.729C1456.13 434.827 1463.13 435.219 1470 435.785C1458.58 436.051 1447.29 436.011 1436 435.971C1436.03 371.014 1436.06 306.057 1436.35 240.142C1436.81 238.482 1437.01 237.779 1437.21 237.076C1437.21 237.076 1437.86 236.924 1438.18 237.05Z" fill="#199AE7"/>
<path d="M1470 403C1468.93 401.271 1467.15 398.861 1467.14 396.447C1466.97 343.752 1467.01 291.057 1467 237.688C1467.3 236.941 1467.61 236.868 1468.47 237.158C1469.22 237.827 1469.49 238.06 1469.85 238.22C1469.93 292.919 1470.02 347.619 1470 403Z" fill="#199AE7"/>
<path d="M1439.05 237.059C1448.27 236.971 1457.5 236.883 1467.33 237.574C1467.95 290.725 1467.92 343.096 1468.05 395.468C1468.05 397.866 1469.41 400.261 1470.14 402.658C1470.25 402.914 1470.37 403.17 1470.84 404.278C1473.87 405.759 1476.53 406.913 1479.2 406.933C1499.28 407.085 1519.36 407.183 1539.44 406.904C1545.21 406.824 1547.51 409.176 1546.91 415.378C1546.77 416.809 1546.89 418.271 1546.89 419.719C1546.89 432.691 1546.89 432.691 1535.8 435.985C1513.64 436.029 1492.1 435.99 1470.08 435.693C1462.83 435.173 1456.08 434.78 1449.32 434.682C1439.02 434.533 1439 434.62 1439 423.582C1439.01 361.408 1439.03 299.233 1439.05 237.059Z" fill="#199AE7"/>
<path d="M1436.87 237C1437.21 237.516 1436.86 238.139 1436.11 239C1435.86 238.528 1436.01 237.818 1436.87 237Z" fill="#199AE7"/>
</svg>
